<svg xmlns="http://www.w3.org/2000/svg" xmlns:xlink="http://www.w3.org/1999/xlink" width="1920" zoomAndPan="magnify" viewBox="0 0 1440 809.999993" height="1080" preserveAspectRatio="xMidYMid meet" version="1.0"><defs><g/><clipPath id="6e6379954b"><path d="M 0 19.980469 L 1440 19.980469 L 1440 664.019531 L 0 664.019531 Z M 0 19.980469 " clip-rule="nonzero"/></clipPath><clipPath id="f7d7408832"><path d="M 38.25 19.980469 L 1401.75 19.980469 C 1422.875 19.980469 1440 37.105469 1440 58.230469 L 1440 625.769531 C 1440 646.894531 1422.875 664.019531 1401.75 664.019531 L 38.25 664.019531 C 17.125 664.019531 0 646.894531 0 625.769531 L 0 58.230469 C 0 37.105469 17.125 19.980469 38.25 19.980469 Z M 38.25 19.980469 " clip-rule="nonzero"/></clipPath><clipPath id="52f5a8c4d7"><path d="M 0 0.980469 L 1440 0.980469 L 1440 645.019531 L 0 645.019531 Z M 0 0.980469 " clip-rule="nonzero"/></clipPath><clipPath id="de2ec3bc03"><path d="M 38.25 0.980469 L 1401.75 0.980469 C 1422.875 0.980469 1440 18.105469 1440 39.230469 L 1440 606.769531 C 1440 627.894531 1422.875 645.019531 1401.75 645.019531 L 38.25 645.019531 C 17.125 645.019531 0 627.894531 0 606.769531 L 0 39.230469 C 0 18.105469 17.125 0.980469 38.25 0.980469 Z M 38.25 0.980469 " clip-rule="nonzero"/></clipPath><clipPath id="e2e9029ca3"><rect x="0" width="1440" y="0" height="646"/></clipPath><clipPath id="d4ce63fc91"><path d="M 81.867188 54.480469 L 474 54.480469 L 474 329.710938 L 81.867188 329.710938 Z M 81.867188 54.480469 " clip-rule="nonzero"/></clipPath><clipPath id="5a3ced2a85"><path d="M 120.117188 54.480469 L 435.617188 54.480469 C 456.742188 54.480469 473.867188 71.605469 473.867188 92.730469 L 473.867188 291.460938 C 473.867188 312.585938 456.742188 329.710938 435.617188 329.710938 L 120.117188 329.710938 C 98.992188 329.710938 81.867188 312.585938 81.867188 291.460938 L 81.867188 92.730469 C 81.867188 71.605469 98.992188 54.480469 120.117188 54.480469 Z M 120.117188 54.480469 " clip-rule="nonzero"/></clipPath><clipPath id="52841a5b47"><path d="M 0.867188 0.480469 L 393 0.480469 L 393 275.710938 L 0.867188 275.710938 Z M 0.867188 0.480469 " clip-rule="nonzero"/></clipPath><clipPath id="7a2068ec6a"><path d="M 39.117188 0.480469 L 354.617188 0.480469 C 375.742188 0.480469 392.867188 17.605469 392.867188 38.730469 L 392.867188 237.460938 C 392.867188 258.585938 375.742188 275.710938 354.617188 275.710938 L 39.117188 275.710938 C 17.992188 275.710938 0.867188 258.585938 0.867188 237.460938 L 0.867188 38.730469 C 0.867188 17.605469 17.992188 0.480469 39.117188 0.480469 Z M 39.117188 0.480469 " clip-rule="nonzero"/></clipPath><clipPath id="cd71e73372"><rect x="0" width="393" y="0" height="276"/></clipPath><clipPath id="3a1e5ae698"><path d="M 81.867188 54.480469 L 473.867188 54.480469 L 473.867188 329.125 L 81.867188 329.125 Z M 81.867188 54.480469 " clip-rule="nonzero"/></clipPath><clipPath id="aaec5a4d3e"><path d="M 120.117188 54.480469 L 435.617188 54.480469 C 456.742188 54.480469 473.867188 71.605469 473.867188 92.730469 L 473.867188 291.460938 C 473.867188 312.585938 456.742188 329.710938 435.617188 329.710938 L 120.117188 329.710938 C 98.992188 329.710938 81.867188 312.585938 81.867188 291.460938 L 81.867188 92.730469 C 81.867188 71.605469 98.992188 54.480469 120.117188 54.480469 Z M 120.117188 54.480469 " clip-rule="nonzero"/></clipPath><clipPath id="3d3ed8b4a6"><path d="M 628.214844 37.074219 L 882 37.074219 L 882 649.269531 L 628.214844 649.269531 Z M 628.214844 37.074219 " clip-rule="nonzero"/></clipPath><clipPath id="16da4a4ca0"><path d="M 666.460938 37.074219 L 843.699219 37.074219 C 864.824219 37.074219 881.949219 54.199219 881.949219 75.324219 L 881.949219 610.882812 C 881.949219 632.003906 864.824219 649.128906 843.699219 649.128906 L 666.460938 649.128906 C 645.335938 649.128906 628.214844 632.003906 628.214844 610.882812 L 628.214844 75.324219 C 628.214844 54.199219 645.335938 37.074219 666.460938 37.074219 Z M 666.460938 37.074219 " clip-rule="nonzero"/></clipPath><clipPath id="0d5767f774"><path d="M 487 59.191406 L 994 59.191406 L 994 581.859375 L 487 581.859375 Z M 487 59.191406 " clip-rule="nonzero"/></clipPath><clipPath id="5621ac4d1a"><path d="M 536.492188 59.191406 C 562.824219 59.191406 584.257812 81.238281 584.257812 108.179688 C 584.257812 135.125 563.4375 156.253906 536.492188 156.253906 C 509.238281 156.253906 487.5 134.515625 487.5 108.179688 C 487.5 81.238281 509.238281 59.191406 536.492188 59.191406 Z M 596.503906 105.121094 L 690.199219 110.324219 C 689.585938 113.386719 689.585938 116.140625 689.585938 119.511719 C 689.585938 120.429688 689.585938 121.347656 689.585938 122.574219 L 595.890625 117.367188 C 596.503906 114.304688 596.503906 111.242188 596.503906 108.179688 C 596.503906 107.261719 596.503906 106.039062 596.503906 105.121094 Z M 547.207031 167.582031 L 556.085938 262.503906 C 552.105469 260.972656 548.125 260.050781 543.535156 259.746094 L 534.960938 168.5 C 535.574219 168.5 535.878906 168.5 536.492188 168.5 C 540.164062 168.5 543.839844 168.195312 547.207031 167.582031 Z M 764.605469 178.910156 L 767.359375 199.121094 C 763.378906 198.203125 759.09375 197.285156 754.804688 196.976562 L 752.355469 180.75 C 756.644531 180.441406 760.625 179.832031 764.605469 178.910156 Z M 899.328125 222.699219 L 821.554688 312.71875 L 909.738281 398.757812 C 906.371094 401.207031 903.308594 403.964844 900.554688 406.71875 L 813.59375 321.902344 L 790.019531 349.15625 C 786.957031 346.398438 783.589844 343.949219 779.914062 342.113281 L 804.714844 313.332031 L 792.46875 301.386719 C 795.53125 298.328125 797.980469 295.265625 800.429688 291.898438 L 812.675781 303.839844 L 891.980469 212.285156 C 894.125 215.960938 896.574219 219.328125 899.328125 222.699219 Z M 692.035156 274.445312 L 595.890625 309.042969 C 594.972656 305.0625 594.054688 301.082031 592.523438 297.40625 L 689.585938 262.195312 C 690.199219 266.484375 690.8125 270.769531 692.035156 274.445312 Z M 594.667969 335.070312 L 697.855469 364.769531 C 695.710938 368.445312 693.875 372.117188 692.648438 376.097656 L 590.378906 346.398438 C 592.21875 342.722656 593.75 339.050781 594.667969 335.070312 Z M 577.214844 364.464844 C 616.101562 403.042969 672.132812 459.078125 704.898438 492.757812 C 702.140625 495.820312 699.691406 499.1875 697.546875 502.863281 C 664.785156 468.875 606.914062 411.003906 567.109375 372.117188 C 570.785156 369.976562 574.152344 367.21875 577.214844 364.464844 Z M 810.839844 396.613281 L 891.671875 418.964844 C 889.835938 422.640625 888 426.621094 887.082031 430.601562 L 809.308594 409.167969 C 810.226562 405.1875 810.839844 400.902344 810.839844 396.613281 Z M 944.644531 399.984375 C 971.589844 399.984375 993.636719 421.722656 993.636719 448.054688 C 993.636719 475 971.589844 497.046875 944.644531 497.046875 C 918.3125 497.046875 896.574219 475 896.574219 448.054688 C 896.574219 421.109375 917.699219 399.984375 944.644531 399.984375 Z M 944.644531 133.59375 C 971.589844 133.59375 993.636719 155.640625 993.636719 182.585938 C 993.636719 209.226562 971.589844 230.660156 944.644531 230.660156 C 917.699219 230.660156 896.574219 209.53125 896.574219 182.585938 C 896.574219 155.640625 918.3125 133.59375 944.644531 133.59375 Z M 750.824219 484.796875 C 777.769531 484.796875 798.589844 505.925781 798.589844 532.871094 C 798.589844 559.816406 777.15625 581.859375 750.824219 581.859375 C 723.574219 581.859375 701.835938 559.816406 701.835938 532.871094 C 701.835938 506.230469 723.574219 484.796875 750.824219 484.796875 Z M 750.824219 347.011719 C 777.769531 347.011719 798.589844 368.136719 798.589844 395.082031 C 798.589844 422.027344 777.15625 444.074219 750.824219 444.074219 C 723.574219 444.074219 701.835938 422.027344 701.835938 395.082031 C 701.835938 368.445312 723.574219 347.011719 750.824219 347.011719 Z M 750.824219 209.226562 C 777.769531 209.226562 798.589844 230.351562 798.589844 257.296875 C 798.589844 284.242188 777.15625 306.289062 750.824219 306.289062 C 723.574219 306.289062 701.835938 284.242188 701.835938 257.296875 C 701.835938 230.660156 723.574219 209.226562 750.824219 209.226562 Z M 750.824219 71.4375 C 777.769531 71.4375 798.589844 92.566406 798.589844 119.511719 C 798.589844 146.457031 777.15625 168.5 750.824219 168.5 C 723.574219 168.5 701.835938 146.457031 701.835938 119.511719 C 701.835938 92.871094 723.574219 71.4375 750.824219 71.4375 Z M 536.492188 271.382812 C 563.4375 271.382812 584.257812 292.507812 584.257812 319.453125 C 584.257812 346.398438 562.824219 368.445312 536.492188 368.445312 C 509.238281 368.445312 487.5 346.398438 487.5 319.453125 C 487.5 293.121094 509.238281 271.382812 536.492188 271.382812 Z M 536.492188 271.382812 " clip-rule="evenodd"/></clipPath><linearGradient x1="90" gradientTransform="matrix(-0.306192, 0, 0, -0.306192, 1021.193043, 601.150763)" y1="916.66498" x2="1743" gradientUnits="userSpaceOnUse" y2="916.66498" id="ca24ea27cf"><stop stop-opacity="1" stop-color="rgb(94.119263%, 44.309998%, 67.059326%)" offset="0"/><stop stop-opacity="1" stop-color="rgb(93.803406%, 44.398499%, 67.14325%)" offset="0.00390625"/><stop stop-opacity="1" stop-color="rgb(93.489075%, 44.487%, 67.227173%)" offset="0.0078125"/><stop stop-opacity="1" stop-color="rgb(93.173218%, 44.5755%, 67.311096%)" offset="0.0117188"/><stop stop-opacity="1" stop-color="rgb(92.857361%, 44.664001%, 67.396545%)" offset="0.015625"/><stop stop-opacity="1" stop-color="rgb(92.541504%, 44.752502%, 67.480469%)" offset="0.0195313"/><stop stop-opacity="1" stop-color="rgb(92.225647%, 44.842529%, 67.564392%)" offset="0.0234375"/><stop stop-opacity="1" stop-color="rgb(91.90979%, 44.93103%, 67.648315%)" offset="0.0273438"/><stop stop-opacity="1" stop-color="rgb(91.595459%, 45.019531%, 67.733765%)" offset="0.03125"/><stop stop-opacity="1" stop-color="rgb(91.279602%, 45.108032%, 67.817688%)" offset="0.0351563"/><stop stop-opacity="1" stop-color="rgb(90.963745%, 45.198059%, 67.901611%)" offset="0.0390625"/><stop stop-opacity="1" stop-color="rgb(90.647888%, 45.28656%, 67.985535%)" offset="0.0429688"/><stop stop-opacity="1" stop-color="rgb(90.333557%, 45.375061%, 68.069458%)" offset="0.046875"/><stop stop-opacity="1" stop-color="rgb(90.0177%, 45.463562%, 68.153381%)" offset="0.0507813"/><stop stop-opacity="1" stop-color="rgb(89.701843%, 45.553589%, 68.238831%)" offset="0.0546875"/><stop stop-opacity="1" stop-color="rgb(89.385986%, 45.64209%, 68.322754%)" offset="0.0585938"/><stop stop-opacity="1" stop-color="rgb(89.071655%, 45.730591%, 68.406677%)" offset="0.0625"/><stop stop-opacity="1" stop-color="rgb(88.755798%, 45.819092%, 68.490601%)" offset="0.0664062"/><stop stop-opacity="1" stop-color="rgb(88.439941%, 45.909119%, 68.57605%)" offset="0.0703125"/><stop stop-opacity="1" stop-color="rgb(88.124084%, 45.99762%, 68.659973%)" offset="0.0742188"/><stop stop-opacity="1" stop-color="rgb(87.808228%, 46.086121%, 68.743896%)" offset="0.078125"/><stop stop-opacity="1" stop-color="rgb(87.492371%, 46.174622%, 68.82782%)" offset="0.0820312"/><stop stop-opacity="1" stop-color="rgb(87.17804%, 46.263123%, 68.911743%)" offset="0.0859375"/><stop stop-opacity="1" stop-color="rgb(86.862183%, 46.351624%, 68.995667%)" offset="0.0898438"/><stop stop-opacity="1" stop-color="rgb(86.546326%, 46.44165%, 69.081116%)" offset="0.09375"/><stop stop-opacity="1" stop-color="rgb(86.230469%, 46.530151%, 69.165039%)" offset="0.0976562"/><stop stop-opacity="1" stop-color="rgb(85.916138%, 46.618652%, 69.248962%)" offset="0.101562"/><stop stop-opacity="1" stop-color="rgb(85.600281%, 46.707153%, 69.332886%)" offset="0.105469"/><stop stop-opacity="1" stop-color="rgb(85.284424%, 46.79718%, 69.418335%)" offset="0.109375"/><stop stop-opacity="1" stop-color="rgb(84.968567%, 46.885681%, 69.502258%)" offset="0.113281"/><stop stop-opacity="1" stop-color="rgb(84.654236%, 46.974182%, 69.586182%)" offset="0.117188"/><stop stop-opacity="1" stop-color="rgb(84.338379%, 47.062683%, 69.670105%)" offset="0.121094"/><stop stop-opacity="1" stop-color="rgb(84.022522%, 47.15271%, 69.755554%)" offset="0.125"/><stop stop-opacity="1" stop-color="rgb(83.706665%, 47.241211%, 69.839478%)" offset="0.128906"/><stop stop-opacity="1" stop-color="rgb(83.392334%, 47.329712%, 69.923401%)" offset="0.132813"/><stop stop-opacity="1" stop-color="rgb(83.076477%, 47.418213%, 70.007324%)" offset="0.136719"/><stop stop-opacity="1" stop-color="rgb(82.76062%, 47.50824%, 70.091248%)" offset="0.140625"/><stop stop-opacity="1" stop-color="rgb(82.444763%, 47.596741%, 70.175171%)" offset="0.144531"/><stop stop-opacity="1" stop-color="rgb(82.128906%, 47.685242%, 70.26062%)" offset="0.148438"/><stop stop-opacity="1" stop-color="rgb(81.813049%, 47.773743%, 70.344543%)" offset="0.152344"/><stop stop-opacity="1" stop-color="rgb(81.498718%, 47.86377%, 70.428467%)" offset="0.15625"/><stop stop-opacity="1" stop-color="rgb(81.182861%, 47.952271%, 70.51239%)" offset="0.160156"/><stop stop-opacity="1" stop-color="rgb(80.867004%, 48.040771%, 70.597839%)" offset="0.164062"/><stop stop-opacity="1" stop-color="rgb(80.551147%, 48.129272%, 70.681763%)" offset="0.167969"/><stop stop-opacity="1" stop-color="rgb(80.236816%, 48.219299%, 70.765686%)" offset="0.171875"/><stop stop-opacity="1" stop-color="rgb(79.920959%, 48.3078%, 70.849609%)" offset="0.175781"/><stop stop-opacity="1" stop-color="rgb(79.605103%, 48.396301%, 70.933533%)" offset="0.179688"/><stop stop-opacity="1" stop-color="rgb(79.289246%, 48.484802%, 71.017456%)" offset="0.183594"/><stop stop-opacity="1" stop-color="rgb(78.974915%, 48.573303%, 71.102905%)" offset="0.1875"/><stop stop-opacity="1" stop-color="rgb(78.659058%, 48.661804%, 71.186829%)" offset="0.191406"/><stop stop-opacity="1" stop-color="rgb(78.343201%, 48.751831%, 71.270752%)" offset="0.195313"/><stop stop-opacity="1" stop-color="rgb(78.027344%, 48.840332%, 71.354675%)" offset="0.199219"/><stop stop-opacity="1" stop-color="rgb(77.711487%, 48.928833%, 71.440125%)" offset="0.203125"/><stop stop-opacity="1" stop-color="rgb(77.39563%, 49.017334%, 71.524048%)" offset="0.207031"/><stop stop-opacity="1" stop-color="rgb(77.081299%, 49.107361%, 71.607971%)" offset="0.210938"/><stop stop-opacity="1" stop-color="rgb(76.765442%, 49.195862%, 71.691895%)" offset="0.214844"/><stop stop-opacity="1" stop-color="rgb(76.449585%, 49.284363%, 71.777344%)" offset="0.21875"/><stop stop-opacity="1" stop-color="rgb(76.133728%, 49.372864%, 71.861267%)" offset="0.222656"/><stop stop-opacity="1" stop-color="rgb(75.819397%, 49.462891%, 71.94519%)" offset="0.226563"/><stop stop-opacity="1" stop-color="rgb(75.50354%, 49.551392%, 72.029114%)" offset="0.230469"/><stop stop-opacity="1" stop-color="rgb(75.187683%, 49.639893%, 72.113037%)" offset="0.234375"/><stop stop-opacity="1" stop-color="rgb(74.871826%, 49.728394%, 72.19696%)" offset="0.238281"/><stop stop-opacity="1" stop-color="rgb(74.557495%, 49.81842%, 72.28241%)" offset="0.242188"/><stop stop-opacity="1" stop-color="rgb(74.241638%, 49.906921%, 72.366333%)" offset="0.246094"/><stop stop-opacity="1" stop-color="rgb(73.925781%, 49.995422%, 72.450256%)" offset="0.25"/><stop stop-opacity="1" stop-color="rgb(73.609924%, 50.083923%, 72.53418%)" offset="0.253906"/><stop stop-opacity="1" stop-color="rgb(73.295593%, 50.17395%, 72.619629%)" offset="0.257812"/><stop stop-opacity="1" stop-color="rgb(72.979736%, 50.262451%, 72.703552%)" offset="0.261719"/><stop stop-opacity="1" stop-color="rgb(72.663879%, 50.350952%, 72.787476%)" offset="0.265625"/><stop stop-opacity="1" stop-color="rgb(72.348022%, 50.439453%, 72.871399%)" offset="0.269531"/><stop stop-opacity="1" stop-color="rgb(72.032166%, 50.527954%, 72.955322%)" offset="0.273438"/><stop stop-opacity="1" stop-color="rgb(71.716309%, 50.616455%, 73.039246%)" offset="0.277344"/><stop stop-opacity="1" stop-color="rgb(71.401978%, 50.706482%, 73.124695%)" offset="0.28125"/><stop stop-opacity="1" stop-color="rgb(71.086121%, 50.794983%, 73.208618%)" offset="0.285156"/><stop stop-opacity="1" stop-color="rgb(70.770264%, 50.883484%, 73.292542%)" offset="0.289062"/><stop stop-opacity="1" stop-color="rgb(70.454407%, 50.971985%, 73.376465%)" offset="0.292969"/><stop stop-opacity="1" stop-color="rgb(70.140076%, 51.062012%, 73.461914%)" offset="0.296875"/><stop stop-opacity="1" stop-color="rgb(69.824219%, 51.150513%, 73.545837%)" offset="0.300781"/><stop stop-opacity="1" stop-color="rgb(69.508362%, 51.239014%, 73.629761%)" offset="0.304688"/><stop stop-opacity="1" stop-color="rgb(69.192505%, 51.327515%, 73.713684%)" offset="0.308594"/><stop stop-opacity="1" stop-color="rgb(68.878174%, 51.417542%, 73.799133%)" offset="0.3125"/><stop stop-opacity="1" stop-color="rgb(68.562317%, 51.506042%, 73.883057%)" offset="0.316406"/><stop stop-opacity="1" stop-color="rgb(68.24646%, 51.594543%, 73.96698%)" offset="0.320312"/><stop stop-opacity="1" stop-color="rgb(67.930603%, 51.683044%, 74.050903%)" offset="0.324219"/><stop stop-opacity="1" stop-color="rgb(67.614746%, 51.773071%, 74.134827%)" offset="0.328125"/><stop stop-opacity="1" stop-color="rgb(67.298889%, 51.861572%, 74.21875%)" offset="0.332031"/><stop stop-opacity="1" stop-color="rgb(66.984558%, 51.950073%, 74.304199%)" offset="0.335937"/><stop stop-opacity="1" stop-color="rgb(66.668701%, 52.038574%, 74.388123%)" offset="0.339844"/><stop stop-opacity="1" stop-color="rgb(66.352844%, 52.128601%, 74.472046%)" offset="0.34375"/><stop stop-opacity="1" stop-color="rgb(66.036987%, 52.217102%, 74.555969%)" offset="0.347656"/><stop stop-opacity="1" stop-color="rgb(65.722656%, 52.305603%, 74.641418%)" offset="0.351562"/><stop stop-opacity="1" stop-color="rgb(65.406799%, 52.394104%, 74.725342%)" offset="0.355469"/><stop stop-opacity="1" stop-color="rgb(65.090942%, 52.482605%, 74.809265%)" offset="0.359375"/><stop stop-opacity="1" stop-color="rgb(64.775085%, 52.571106%, 74.893188%)" offset="0.363281"/><stop stop-opacity="1" stop-color="rgb(64.460754%, 52.661133%, 74.977112%)" offset="0.367188"/><stop stop-opacity="1" stop-color="rgb(64.144897%, 52.749634%, 75.061035%)" offset="0.371094"/><stop stop-opacity="1" stop-color="rgb(63.829041%, 52.838135%, 75.146484%)" offset="0.375"/><stop stop-opacity="1" stop-color="rgb(63.513184%, 52.926636%, 75.230408%)" offset="0.378906"/><stop stop-opacity="1" stop-color="rgb(63.198853%, 53.016663%, 75.314331%)" offset="0.382812"/><stop stop-opacity="1" stop-color="rgb(62.882996%, 53.105164%, 75.398254%)" offset="0.386719"/><stop stop-opacity="1" stop-color="rgb(62.567139%, 53.193665%, 75.483704%)" offset="0.390625"/><stop stop-opacity="1" stop-color="rgb(62.251282%, 53.282166%, 75.567627%)" offset="0.394531"/><stop stop-opacity="1" stop-color="rgb(61.935425%, 53.372192%, 75.65155%)" offset="0.398438"/><stop stop-opacity="1" stop-color="rgb(61.619568%, 53.460693%, 75.735474%)" offset="0.402344"/><stop stop-opacity="1" stop-color="rgb(61.305237%, 53.549194%, 75.820923%)" offset="0.40625"/><stop stop-opacity="1" stop-color="rgb(60.98938%, 53.637695%, 75.904846%)" offset="0.410156"/><stop stop-opacity="1" stop-color="rgb(60.673523%, 53.727722%, 75.98877%)" offset="0.414062"/><stop stop-opacity="1" stop-color="rgb(60.357666%, 53.816223%, 76.072693%)" offset="0.417969"/><stop stop-opacity="1" stop-color="rgb(60.043335%, 53.904724%, 76.156616%)" offset="0.421875"/><stop stop-opacity="1" stop-color="rgb(59.727478%, 53.993225%, 76.24054%)" offset="0.425781"/><stop stop-opacity="1" stop-color="rgb(59.411621%, 54.083252%, 76.325989%)" offset="0.429688"/><stop stop-opacity="1" stop-color="rgb(59.095764%, 54.171753%, 76.409912%)" offset="0.433594"/><stop stop-opacity="1" stop-color="rgb(58.781433%, 54.260254%, 76.493835%)" offset="0.4375"/><stop stop-opacity="1" stop-color="rgb(58.465576%, 54.348755%, 76.577759%)" offset="0.441406"/><stop stop-opacity="1" stop-color="rgb(58.149719%, 54.438782%, 76.663208%)" offset="0.445312"/><stop stop-opacity="1" stop-color="rgb(57.833862%, 54.527283%, 76.747131%)" offset="0.449219"/><stop stop-opacity="1" stop-color="rgb(57.518005%, 54.615784%, 76.831055%)" offset="0.453125"/><stop stop-opacity="1" stop-color="rgb(57.202148%, 54.704285%, 76.914978%)" offset="0.457031"/><stop stop-opacity="1" stop-color="rgb(56.887817%, 54.792786%, 76.998901%)" offset="0.460938"/><stop stop-opacity="1" stop-color="rgb(56.57196%, 54.881287%, 77.082825%)" offset="0.464844"/><stop stop-opacity="1" stop-color="rgb(56.256104%, 54.971313%, 77.168274%)" offset="0.46875"/><stop stop-opacity="1" stop-color="rgb(55.940247%, 55.059814%, 77.252197%)" offset="0.472656"/><stop stop-opacity="1" stop-color="rgb(55.625916%, 55.148315%, 77.336121%)" offset="0.476562"/><stop stop-opacity="1" stop-color="rgb(55.310059%, 55.236816%, 77.420044%)" offset="0.480469"/><stop stop-opacity="1" stop-color="rgb(54.994202%, 55.326843%, 77.505493%)" offset="0.484375"/><stop stop-opacity="1" stop-color="rgb(54.678345%, 55.415344%, 77.589417%)" offset="0.488281"/><stop stop-opacity="1" stop-color="rgb(54.364014%, 55.503845%, 77.67334%)" offset="0.492188"/><stop stop-opacity="1" stop-color="rgb(54.048157%, 55.592346%, 77.757263%)" offset="0.496094"/><stop stop-opacity="1" stop-color="rgb(53.7323%, 55.682373%, 77.842712%)" offset="0.5"/><stop stop-opacity="1" stop-color="rgb(53.416443%, 55.770874%, 77.926636%)" offset="0.503906"/><stop stop-opacity="1" stop-color="rgb(53.102112%, 55.859375%, 78.010559%)" offset="0.507812"/><stop stop-opacity="1" stop-color="rgb(52.786255%, 55.947876%, 78.094482%)" offset="0.511719"/><stop stop-opacity="1" stop-color="rgb(52.470398%, 56.037903%, 78.178406%)" offset="0.515625"/><stop stop-opacity="1" stop-color="rgb(52.154541%, 56.126404%, 78.262329%)" offset="0.519531"/><stop stop-opacity="1" stop-color="rgb(51.838684%, 56.214905%, 78.347778%)" offset="0.523438"/><stop stop-opacity="1" stop-color="rgb(51.522827%, 56.303406%, 78.431702%)" offset="0.527344"/><stop stop-opacity="1" stop-color="rgb(51.208496%, 56.393433%, 78.515625%)" offset="0.53125"/><stop stop-opacity="1" stop-color="rgb(50.892639%, 56.481934%, 78.599548%)" offset="0.535156"/><stop stop-opacity="1" stop-color="rgb(50.576782%, 56.570435%, 78.684998%)" offset="0.539062"/><stop stop-opacity="1" stop-color="rgb(50.260925%, 56.658936%, 78.768921%)" offset="0.542969"/><stop stop-opacity="1" stop-color="rgb(49.946594%, 56.747437%, 78.852844%)" offset="0.546875"/><stop stop-opacity="1" stop-color="rgb(49.630737%, 56.835938%, 78.936768%)" offset="0.550781"/><stop stop-opacity="1" stop-color="rgb(49.31488%, 56.925964%, 79.020691%)" offset="0.554688"/><stop stop-opacity="1" stop-color="rgb(48.999023%, 57.014465%, 79.104614%)" offset="0.558594"/><stop stop-opacity="1" stop-color="rgb(48.684692%, 57.102966%, 79.190063%)" offset="0.5625"/><stop stop-opacity="1" stop-color="rgb(48.368835%, 57.191467%, 79.273987%)" offset="0.566406"/><stop stop-opacity="1" stop-color="rgb(48.052979%, 57.281494%, 79.35791%)" offset="0.570312"/><stop stop-opacity="1" stop-color="rgb(47.737122%, 57.369995%, 79.441833%)" offset="0.574219"/><stop stop-opacity="1" stop-color="rgb(47.421265%, 57.458496%, 79.527283%)" offset="0.578125"/><stop stop-opacity="1" stop-color="rgb(47.105408%, 57.546997%, 79.611206%)" offset="0.582031"/><stop stop-opacity="1" stop-color="rgb(46.791077%, 57.637024%, 79.695129%)" offset="0.585938"/><stop stop-opacity="1" stop-color="rgb(46.47522%, 57.725525%, 79.779053%)" offset="0.589844"/><stop stop-opacity="1" stop-color="rgb(46.159363%, 57.814026%, 79.864502%)" offset="0.59375"/><stop stop-opacity="1" stop-color="rgb(45.843506%, 57.902527%, 79.948425%)" offset="0.597656"/><stop stop-opacity="1" stop-color="rgb(45.529175%, 57.992554%, 80.032349%)" offset="0.601562"/><stop stop-opacity="1" stop-color="rgb(45.213318%, 58.081055%, 80.116272%)" offset="0.605469"/><stop stop-opacity="1" stop-color="rgb(44.897461%, 58.169556%, 80.200195%)" offset="0.609375"/><stop stop-opacity="1" stop-color="rgb(44.581604%, 58.258057%, 80.284119%)" offset="0.613281"/><stop stop-opacity="1" stop-color="rgb(44.267273%, 58.348083%, 80.369568%)" offset="0.617188"/><stop stop-opacity="1" stop-color="rgb(43.951416%, 58.436584%, 80.453491%)" offset="0.621094"/><stop stop-opacity="1" stop-color="rgb(43.635559%, 58.525085%, 80.537415%)" offset="0.625"/><stop stop-opacity="1" stop-color="rgb(43.319702%, 58.613586%, 80.621338%)" offset="0.628906"/><stop stop-opacity="1" stop-color="rgb(43.003845%, 58.702087%, 80.706787%)" offset="0.632812"/><stop stop-opacity="1" stop-color="rgb(42.687988%, 58.790588%, 80.79071%)" offset="0.636719"/><stop stop-opacity="1" stop-color="rgb(42.373657%, 58.880615%, 80.874634%)" offset="0.640625"/><stop stop-opacity="1" stop-color="rgb(42.0578%, 58.969116%, 80.958557%)" offset="0.644531"/><stop stop-opacity="1" stop-color="rgb(41.741943%, 59.057617%, 81.04248%)" offset="0.648438"/><stop stop-opacity="1" stop-color="rgb(41.426086%, 59.146118%, 81.126404%)" offset="0.652344"/><stop stop-opacity="1" stop-color="rgb(41.111755%, 59.236145%, 81.211853%)" offset="0.65625"/><stop stop-opacity="1" stop-color="rgb(40.795898%, 59.324646%, 81.295776%)" offset="0.660156"/><stop stop-opacity="1" stop-color="rgb(40.480042%, 59.413147%, 81.3797%)" offset="0.664063"/><stop stop-opacity="1" stop-color="rgb(40.164185%, 59.501648%, 81.463623%)" offset="0.667969"/><stop stop-opacity="1" stop-color="rgb(39.849854%, 59.591675%, 81.549072%)" offset="0.671875"/><stop stop-opacity="1" stop-color="rgb(39.533997%, 59.680176%, 81.632996%)" offset="0.675781"/><stop stop-opacity="1" stop-color="rgb(39.21814%, 59.768677%, 81.716919%)" offset="0.679688"/><stop stop-opacity="1" stop-color="rgb(38.902283%, 59.857178%, 81.800842%)" offset="0.683594"/><stop stop-opacity="1" stop-color="rgb(38.587952%, 59.947205%, 81.886292%)" offset="0.6875"/><stop stop-opacity="1" stop-color="rgb(38.272095%, 60.035706%, 81.970215%)" offset="0.691406"/><stop stop-opacity="1" stop-color="rgb(37.956238%, 60.124207%, 82.054138%)" offset="0.695313"/><stop stop-opacity="1" stop-color="rgb(37.640381%, 60.212708%, 82.138062%)" offset="0.699219"/><stop stop-opacity="1" stop-color="rgb(37.324524%, 60.302734%, 82.221985%)" offset="0.703125"/><stop stop-opacity="1" stop-color="rgb(37.008667%, 60.391235%, 82.305908%)" offset="0.707031"/><stop stop-opacity="1" stop-color="rgb(36.694336%, 60.479736%, 82.391357%)" offset="0.710938"/><stop stop-opacity="1" stop-color="rgb(36.378479%, 60.568237%, 82.475281%)" offset="0.714844"/><stop stop-opacity="1" stop-color="rgb(36.062622%, 60.658264%, 82.559204%)" offset="0.71875"/><stop stop-opacity="1" stop-color="rgb(35.746765%, 60.746765%, 82.643127%)" offset="0.722656"/><stop stop-opacity="1" stop-color="rgb(35.432434%, 60.835266%, 82.728577%)" offset="0.726562"/><stop stop-opacity="1" stop-color="rgb(35.116577%, 60.923767%, 82.8125%)" offset="0.730469"/><stop stop-opacity="1" stop-color="rgb(34.80072%, 61.012268%, 82.896423%)" offset="0.734375"/><stop stop-opacity="1" stop-color="rgb(34.484863%, 61.100769%, 82.980347%)" offset="0.738281"/><stop stop-opacity="1" stop-color="rgb(34.170532%, 61.190796%, 83.06427%)" offset="0.742187"/><stop stop-opacity="1" stop-color="rgb(33.854675%, 61.279297%, 83.148193%)" offset="0.746094"/><stop stop-opacity="1" stop-color="rgb(33.538818%, 61.367798%, 83.233643%)" offset="0.75"/><stop stop-opacity="1" stop-color="rgb(33.222961%, 61.456299%, 83.317566%)" offset="0.753906"/><stop stop-opacity="1" stop-color="rgb(32.907104%, 61.546326%, 83.401489%)" offset="0.757812"/><stop stop-opacity="1" stop-color="rgb(32.591248%, 61.634827%, 83.485413%)" offset="0.761719"/><stop stop-opacity="1" stop-color="rgb(32.276917%, 61.723328%, 83.570862%)" offset="0.765625"/><stop stop-opacity="1" stop-color="rgb(31.96106%, 61.811829%, 83.654785%)" offset="0.769531"/><stop stop-opacity="1" stop-color="rgb(31.645203%, 61.901855%, 83.738708%)" offset="0.773437"/><stop stop-opacity="1" stop-color="rgb(31.329346%, 61.990356%, 83.822632%)" offset="0.777344"/><stop stop-opacity="1" stop-color="rgb(31.015015%, 62.078857%, 83.908081%)" offset="0.78125"/><stop stop-opacity="1" stop-color="rgb(30.699158%, 62.167358%, 83.992004%)" offset="0.785156"/><stop stop-opacity="1" stop-color="rgb(30.383301%, 62.257385%, 84.075928%)" offset="0.789062"/><stop stop-opacity="1" stop-color="rgb(30.067444%, 62.345886%, 84.159851%)" offset="0.792969"/><stop stop-opacity="1" stop-color="rgb(29.753113%, 62.434387%, 84.243774%)" offset="0.796875"/><stop stop-opacity="1" stop-color="rgb(29.437256%, 62.522888%, 84.327698%)" offset="0.800781"/><stop stop-opacity="1" stop-color="rgb(29.121399%, 62.612915%, 84.413147%)" offset="0.804687"/><stop stop-opacity="1" stop-color="rgb(28.805542%, 62.701416%, 84.49707%)" offset="0.808594"/><stop stop-opacity="1" stop-color="rgb(28.491211%, 62.789917%, 84.580994%)" offset="0.8125"/><stop stop-opacity="1" stop-color="rgb(28.175354%, 62.878418%, 84.664917%)" offset="0.816406"/><stop stop-opacity="1" stop-color="rgb(27.859497%, 62.966919%, 84.750366%)" offset="0.820312"/><stop stop-opacity="1" stop-color="rgb(27.54364%, 63.05542%, 84.83429%)" offset="0.824219"/><stop stop-opacity="1" stop-color="rgb(27.227783%, 63.145447%, 84.918213%)" offset="0.828125"/><stop stop-opacity="1" stop-color="rgb(26.911926%, 63.233948%, 85.002136%)" offset="0.832031"/><stop stop-opacity="1" stop-color="rgb(26.597595%, 63.322449%, 85.08606%)" offset="0.835937"/><stop stop-opacity="1" stop-color="rgb(26.281738%, 63.41095%, 85.169983%)" offset="0.839844"/><stop stop-opacity="1" stop-color="rgb(25.965881%, 63.500977%, 85.255432%)" offset="0.84375"/><stop stop-opacity="1" stop-color="rgb(25.650024%, 63.589478%, 85.339355%)" offset="0.847656"/><stop stop-opacity="1" stop-color="rgb(25.335693%, 63.677979%, 85.423279%)" offset="0.851562"/><stop stop-opacity="1" stop-color="rgb(25.019836%, 63.766479%, 85.507202%)" offset="0.855469"/><stop stop-opacity="1" stop-color="rgb(24.703979%, 63.856506%, 85.592651%)" offset="0.859375"/><stop stop-opacity="1" stop-color="rgb(24.388123%, 63.945007%, 85.676575%)" offset="0.863281"/><stop stop-opacity="1" stop-color="rgb(24.073792%, 64.033508%, 85.760498%)" offset="0.867188"/><stop stop-opacity="1" stop-color="rgb(23.757935%, 64.122009%, 85.844421%)" offset="0.871094"/><stop stop-opacity="1" stop-color="rgb(23.442078%, 64.212036%, 85.929871%)" offset="0.875"/><stop stop-opacity="1" stop-color="rgb(23.126221%, 64.300537%, 86.013794%)" offset="0.878906"/><stop stop-opacity="1" stop-color="rgb(22.810364%, 64.389038%, 86.097717%)" offset="0.882812"/><stop stop-opacity="1" stop-color="rgb(22.494507%, 64.477539%, 86.181641%)" offset="0.886719"/><stop stop-opacity="1" stop-color="rgb(22.180176%, 64.567566%, 86.265564%)" offset="0.890625"/><stop stop-opacity="1" stop-color="rgb(21.864319%, 64.656067%, 86.349487%)" offset="0.894531"/><stop stop-opacity="1" stop-color="rgb(21.548462%, 64.744568%, 86.434937%)" offset="0.898438"/><stop stop-opacity="1" stop-color="rgb(21.232605%, 64.833069%, 86.51886%)" offset="0.902344"/><stop stop-opacity="1" stop-color="rgb(20.918274%, 64.92157%, 86.602783%)" offset="0.90625"/><stop stop-opacity="1" stop-color="rgb(20.602417%, 65.010071%, 86.686707%)" offset="0.910156"/><stop stop-opacity="1" stop-color="rgb(20.28656%, 65.100098%, 86.772156%)" offset="0.914063"/><stop stop-opacity="1" stop-color="rgb(19.970703%, 65.188599%, 86.856079%)" offset="0.917969"/><stop stop-opacity="1" stop-color="rgb(19.656372%, 65.2771%, 86.940002%)" offset="0.921875"/><stop stop-opacity="1" stop-color="rgb(19.340515%, 65.365601%, 87.023926%)" offset="0.925781"/><stop stop-opacity="1" stop-color="rgb(19.024658%, 65.455627%, 87.107849%)" offset="0.929688"/><stop stop-opacity="1" stop-color="rgb(18.708801%, 65.544128%, 87.191772%)" offset="0.933594"/><stop stop-opacity="1" stop-color="rgb(18.39447%, 65.632629%, 87.277222%)" offset="0.9375"/><stop stop-opacity="1" stop-color="rgb(18.078613%, 65.72113%, 87.361145%)" offset="0.941406"/><stop stop-opacity="1" stop-color="rgb(17.762756%, 65.811157%, 87.445068%)" offset="0.945313"/><stop stop-opacity="1" stop-color="rgb(17.446899%, 65.899658%, 87.528992%)" offset="0.949219"/><stop stop-opacity="1" stop-color="rgb(17.131042%, 65.988159%, 87.614441%)" offset="0.953125"/><stop stop-opacity="1" stop-color="rgb(16.815186%, 66.07666%, 87.698364%)" offset="0.957031"/><stop stop-opacity="1" stop-color="rgb(16.500854%, 66.166687%, 87.782288%)" offset="0.960938"/><stop stop-opacity="1" stop-color="rgb(16.184998%, 66.255188%, 87.866211%)" offset="0.964844"/><stop stop-opacity="1" stop-color="rgb(15.869141%, 66.343689%, 87.95166%)" offset="0.96875"/><stop stop-opacity="1" stop-color="rgb(15.553284%, 66.43219%, 88.035583%)" offset="0.972656"/><stop stop-opacity="1" stop-color="rgb(15.238953%, 66.522217%, 88.119507%)" offset="0.976563"/><stop stop-opacity="1" stop-color="rgb(14.923096%, 66.610718%, 88.20343%)" offset="0.980469"/><stop stop-opacity="1" stop-color="rgb(14.607239%, 66.699219%, 88.287354%)" offset="0.984375"/><stop stop-opacity="1" stop-color="rgb(14.291382%, 66.78772%, 88.371277%)" offset="0.988281"/><stop stop-opacity="1" stop-color="rgb(13.977051%, 66.877747%, 88.456726%)" offset="0.992188"/><stop stop-opacity="1" stop-color="rgb(13.661194%, 66.966248%, 88.540649%)" offset="0.996094"/><stop stop-opacity="1" stop-color="rgb(13.345337%, 67.054749%, 88.624573%)" offset="1"/></linearGradient><clipPath id="d2ca736012"><path d="M 995.0625 332.191406 L 1387.480469 332.191406 L 1387.480469 607.421875 L 995.0625 607.421875 Z M 995.0625 332.191406 " clip-rule="nonzero"/></clipPath><clipPath id="9677da57ea"><path d="M 1033.3125 332.191406 L 1348.816406 332.191406 C 1369.941406 332.191406 1387.066406 349.316406 1387.066406 370.441406 L 1387.066406 569.171875 C 1387.066406 590.296875 1369.941406 607.421875 1348.816406 607.421875 L 1033.3125 607.421875 C 1012.1875 607.421875 995.0625 590.296875 995.0625 569.171875 L 995.0625 370.441406 C 995.0625 349.316406 1012.1875 332.191406 1033.3125 332.191406 Z M 1033.3125 332.191406 " clip-rule="nonzero"/></clipPath><clipPath id="4408875fca"><path d="M 0.0625 0.191406 L 392.199219 0.191406 L 392.199219 275.421875 L 0.0625 275.421875 Z M 0.0625 0.191406 " clip-rule="nonzero"/></clipPath><clipPath id="2d291144dd"><path d="M 38.3125 0.191406 L 353.816406 0.191406 C 374.941406 0.191406 392.066406 17.316406 392.066406 38.441406 L 392.066406 237.171875 C 392.066406 258.296875 374.941406 275.421875 353.816406 275.421875 L 38.3125 275.421875 C 17.1875 275.421875 0.0625 258.296875 0.0625 237.171875 L 0.0625 38.441406 C 0.0625 17.316406 17.1875 0.191406 38.3125 0.191406 Z M 38.3125 0.191406 " clip-rule="nonzero"/></clipPath><clipPath id="82a7716baa"><rect x="0" width="393" y="0" height="276"/></clipPath><clipPath id="b189de3d97"><path d="M 995.0625 332.191406 L 1387.066406 332.191406 L 1387.066406 606.835938 L 995.0625 606.835938 Z M 995.0625 332.191406 " clip-rule="nonzero"/></clipPath><clipPath id="36edb9a5e3"><path d="M 1033.3125 332.191406 L 1348.816406 332.191406 C 1369.941406 332.191406 1387.066406 349.316406 1387.066406 370.441406 L 1387.066406 569.171875 C 1387.066406 590.296875 1369.941406 607.421875 1348.816406 607.421875 L 1033.3125 607.421875 C 1012.1875 607.421875 995.0625 590.296875 995.0625 569.171875 L 995.0625 370.441406 C 995.0625 349.316406 1012.1875 332.191406 1033.3125 332.191406 Z M 1033.3125 332.191406 " clip-rule="nonzero"/></clipPath><clipPath id="ace3bf5c22"><path d="M 1057.019531 198.144531 L 1325.109375 198.144531 L 1325.109375 466.238281 L 1057.019531 466.238281 Z M 1057.019531 198.144531 " clip-rule="nonzero"/></clipPath><clipPath id="592e43353d"><path d="M 1191.0625 198.144531 C 1117.03125 198.144531 1057.019531 258.160156 1057.019531 332.191406 C 1057.019531 406.222656 1117.03125 466.238281 1191.0625 466.238281 C 1265.09375 466.238281 1325.109375 406.222656 1325.109375 332.191406 C 1325.109375 258.160156 1265.09375 198.144531 1191.0625 198.144531 Z M 1191.0625 198.144531 " clip-rule="nonzero"/></clipPath><clipPath id="c2c02bb1cb"><path d="M 0.0195312 0.144531 L 268.109375 0.144531 L 268.109375 268.238281 L 0.0195312 268.238281 Z M 0.0195312 0.144531 " clip-rule="nonzero"/></clipPath><clipPath id="e4d8d41187"><path d="M 134.0625 0.144531 C 60.03125 0.144531 0.0195312 60.160156 0.0195312 134.191406 C 0.0195312 208.222656 60.03125 268.238281 134.0625 268.238281 C 208.09375 268.238281 268.109375 208.222656 268.109375 134.191406 C 268.109375 60.160156 208.09375 0.144531 134.0625 0.144531 Z M 134.0625 0.144531 " clip-rule="nonzero"/></clipPath><clipPath id="008a411ee2"><rect x="0" width="269" y="0" height="269"/></clipPath><clipPath id="008f673836"><path d="M 1078.242188 268.304688 L 1304.488281 268.304688 L 1304.488281 396.554688 L 1078.242188 396.554688 Z M 1078.242188 268.304688 " clip-rule="nonzero"/></clipPath><clipPath id="c224a34f5a"><path d="M 1127 268.304688 L 1256 268.304688 L 1256 396.554688 L 1127 396.554688 Z M 1127 268.304688 " clip-rule="nonzero"/></clipPath><clipPath id="f3c4a7fa0b"><path d="M 132.15625 186.480469 L 423.578125 186.480469 L 423.578125 477.902344 L 132.15625 477.902344 Z M 132.15625 186.480469 " clip-rule="nonzero"/></clipPath><clipPath id="e4f09fb40a"><path d="M 277.867188 186.480469 C 197.394531 186.480469 132.15625 251.71875 132.15625 332.191406 C 132.15625 412.664062 197.394531 477.902344 277.867188 477.902344 C 358.339844 477.902344 423.578125 412.664062 423.578125 332.191406 C 423.578125 251.71875 358.339844 186.480469 277.867188 186.480469 Z M 277.867188 186.480469 " clip-rule="nonzero"/></clipPath><clipPath id="1e5e4a4c9a"><path d="M 0.15625 0.480469 L 291.578125 0.480469 L 291.578125 291.902344 L 0.15625 291.902344 Z M 0.15625 0.480469 " clip-rule="nonzero"/></clipPath><clipPath id="c8ed694dc1"><path d="M 145.867188 0.480469 C 65.394531 0.480469 0.15625 65.71875 0.15625 146.191406 C 0.15625 226.664062 65.394531 291.902344 145.867188 291.902344 C 226.339844 291.902344 291.578125 226.664062 291.578125 146.191406 C 291.578125 65.71875 226.339844 0.480469 145.867188 0.480469 Z M 145.867188 0.480469 " clip-rule="nonzero"/></clipPath><clipPath id="f06b370148"><rect x="0" width="292" y="0" height="292"/></clipPath><clipPath id="db584f7465"><path d="M 200.8125 210.191406 L 342.367188 210.191406 L 342.367188 454.589844 L 200.8125 454.589844 Z M 200.8125 210.191406 " clip-rule="nonzero"/></clipPath><clipPath id="aaaddb27de"><rect x="0" width="1440" y="0" height="687"/></clipPath></defs><rect x="-144" width="1728" fill="#ffffff" y="-80.999999" height="971.999992" fill-opacity="1"/><rect x="-144" width="1728" fill="#ffffff" y="-80.999999" height="971.999992" fill-opacity="1"/><g transform="matrix(1, 0, 0, 1, 0, 63)"><g clip-path="url(#aaaddb27de)"><g clip-path="url(#6e6379954b)"><g clip-path="url(#f7d7408832)"><g transform="matrix(1, 0, 0, 1, 0, 19)"><g clip-path="url(#e2e9029ca3)"><g clip-path="url(#52f5a8c4d7)"><g clip-path="url(#de2ec3bc03)"><path fill="#f6f6f6" d="M 0 0.980469 L 1439.027344 0.980469 L 1439.027344 645.019531 L 0 645.019531 Z M 0 0.980469 " fill-opacity="1" fill-rule="nonzero"/></g></g></g></g></g></g><g clip-path="url(#d4ce63fc91)"><g clip-path="url(#5a3ced2a85)"><g transform="matrix(1, 0, 0, 1, 81, 54)"><g clip-path="url(#cd71e73372)"><g clip-path="url(#52841a5b47)"><g clip-path="url(#7a2068ec6a)"><path fill="#b0e6fd" d="M 0.867188 0.480469 L 393.285156 0.480469 L 393.285156 275.710938 L 0.867188 275.710938 Z M 0.867188 0.480469 " fill-opacity="1" fill-rule="nonzero"/></g></g></g></g></g></g><g clip-path="url(#3a1e5ae698)"><g clip-path="url(#aaec5a4d3e)"><path fill="#27aae1" d="M 153.117188 46.230469 L 177.867188 46.230469 L 177.867188 62.730469 L 153.117188 62.730469 Z M 186.117188 46.230469 L 210.867188 46.230469 L 210.867188 62.730469 L 186.117188 62.730469 Z M 219.117188 46.230469 L 243.867188 46.230469 L 243.867188 62.730469 L 219.117188 62.730469 Z M 252.117188 46.230469 L 276.867188 46.230469 L 276.867188 62.730469 L 252.117188 62.730469 Z M 285.117188 46.230469 L 309.867188 46.230469 L 309.867188 62.730469 L 285.117188 62.730469 Z M 318.117188 46.230469 L 342.867188 46.230469 L 342.867188 62.730469 L 318.117188 62.730469 Z M 351.117188 46.230469 L 375.867188 46.230469 L 375.867188 62.730469 L 351.117188 62.730469 Z M 384.117188 46.230469 L 408.867188 46.230469 L 408.867188 62.730469 L 384.117188 62.730469 Z M 417.117188 46.230469 L 435.617188 46.230469 C 438.171875 46.230469 440.703125 46.4375 443.210938 46.847656 L 440.53125 63.128906 C 438.914062 62.863281 437.277344 62.730469 435.617188 62.730469 L 417.117188 62.730469 Z M 452.863281 49.535156 C 462.507812 53.390625 470.027344 59.769531 475.421875 68.679688 L 461.304688 77.222656 C 457.820312 71.46875 452.964844 67.34375 446.742188 64.859375 Z M 479.652344 77.761719 C 481.296875 82.59375 482.117188 87.585938 482.117188 92.730469 L 482.117188 104.984375 L 465.617188 104.984375 L 465.617188 92.730469 C 465.617188 89.402344 465.089844 86.183594 464.03125 83.070312 Z M 482.117188 113.234375 L 482.117188 137.984375 L 465.617188 137.984375 L 465.617188 113.234375 Z M 482.117188 146.234375 L 482.117188 170.984375 L 465.617188 170.984375 L 465.617188 146.234375 Z M 482.117188 179.234375 L 482.117188 203.984375 L 465.617188 203.984375 L 465.617188 179.234375 Z M 482.117188 212.234375 L 482.117188 236.984375 L 465.617188 236.984375 L 465.617188 212.234375 Z M 482.117188 245.234375 L 482.117188 269.984375 L 465.617188 269.984375 L 465.617188 245.234375 Z M 482.117188 278.234375 L 482.117188 291.460938 C 482.117188 296.199219 481.417969 300.816406 480.019531 305.304688 L 464.265625 300.398438 C 465.167969 297.503906 465.617188 294.527344 465.617188 291.460938 L 465.617188 278.234375 Z M 476.019531 314.492188 C 470.859375 323.535156 463.503906 330.105469 453.953125 334.203125 L 447.441406 319.042969 C 453.605469 316.394531 458.355469 312.152344 461.691406 306.3125 Z M 444.363281 337.140625 C 441.484375 337.6875 438.570312 337.960938 435.617188 337.960938 L 418.089844 337.960938 L 418.089844 321.460938 L 435.617188 321.460938 C 437.53125 321.460938 439.417969 321.285156 441.273438 320.929688 Z M 409.839844 337.960938 L 385.089844 337.960938 L 385.089844 321.460938 L 409.839844 321.460938 Z M 376.839844 337.960938 L 352.089844 337.960938 L 352.089844 321.460938 L 376.839844 321.460938 Z M 343.839844 337.960938 L 319.089844 337.960938 L 319.089844 321.460938 L 343.839844 321.460938 Z M 310.839844 337.960938 L 286.089844 337.960938 L 286.089844 321.460938 L 310.839844 321.460938 Z M 277.839844 337.960938 L 253.089844 337.960938 L 253.089844 321.460938 L 277.839844 321.460938 Z M 244.839844 337.960938 L 220.089844 337.960938 L 220.089844 321.460938 L 244.839844 321.460938 Z M 211.839844 337.960938 L 187.089844 337.960938 L 187.089844 321.460938 L 211.839844 321.460938 Z M 178.839844 337.960938 L 154.089844 337.960938 L 154.089844 321.460938 L 178.839844 321.460938 Z M 145.839844 337.960938 L 121.089844 337.960938 L 121.089844 321.460938 L 145.839844 321.460938 Z M 111.308594 337.125 C 101.109375 335.167969 92.519531 330.3125 85.539062 322.554688 L 97.804688 311.515625 C 102.3125 316.527344 107.847656 319.660156 114.417969 320.921875 Z M 79.679688 314.4375 C 75.636719 307.332031 73.617188 299.675781 73.617188 291.460938 L 73.617188 286.429688 L 90.117188 286.429688 L 90.117188 291.460938 C 90.117188 296.761719 91.417969 301.699219 94.019531 306.273438 Z M 73.617188 278.179688 L 73.617188 253.429688 L 90.117188 253.429688 L 90.117188 278.179688 Z M 73.617188 245.179688 L 73.617188 220.429688 L 90.117188 220.429688 L 90.117188 245.179688 Z M 73.617188 212.179688 L 73.617188 187.429688 L 90.117188 187.429688 L 90.117188 212.179688 Z M 73.617188 179.179688 L 73.617188 154.429688 L 90.117188 154.429688 L 90.117188 179.179688 Z M 73.617188 146.179688 L 73.617188 121.429688 L 90.117188 121.429688 L 90.117188 146.179688 Z M 73.617188 113.179688 L 73.617188 92.730469 C 73.617188 90.96875 73.714844 89.214844 73.910156 87.46875 L 90.308594 89.320312 C 90.179688 90.449219 90.117188 91.585938 90.117188 92.730469 L 90.117188 113.179688 Z M 76.101562 77.699219 C 79.457031 67.875 85.449219 60.042969 94.078125 54.203125 L 103.324219 67.867188 C 97.75 71.640625 93.878906 76.695312 91.714844 83.03125 Z M 102.933594 49.511719 C 108.429688 47.324219 114.15625 46.230469 120.117188 46.230469 L 144.867188 46.230469 L 144.867188 62.730469 L 120.117188 62.730469 C 116.265625 62.730469 112.570312 63.433594 109.03125 64.84375 Z M 102.933594 49.511719 " fill-opacity="1" fill-rule="nonzero"/></g></g><g clip-path="url(#3d3ed8b4a6)"><g clip-path="url(#16da4a4ca0)"><path fill="#8b8dc6" d="M 699.460938 28.824219 L 724.210938 28.824219 L 724.210938 45.324219 L 699.460938 45.324219 Z M 732.460938 28.824219 L 757.210938 28.824219 L 757.210938 45.324219 L 732.460938 45.324219 Z M 765.460938 28.824219 L 790.210938 28.824219 L 790.210938 45.324219 L 765.460938 45.324219 Z M 798.460938 28.824219 L 823.210938 28.824219 L 823.210938 45.324219 L 798.460938 45.324219 Z M 831.460938 28.824219 L 843.699219 28.824219 C 848.851562 28.824219 853.847656 29.648438 858.6875 31.292969 L 853.371094 46.914062 C 850.253906 45.855469 847.03125 45.324219 843.699219 45.324219 L 831.460938 45.324219 Z M 867.765625 35.53125 C 876.671875 40.925781 883.050781 48.449219 886.902344 58.097656 L 871.574219 64.210938 C 869.089844 57.984375 864.972656 53.128906 859.21875 49.640625 Z M 889.582031 67.75 C 889.992188 70.25 890.199219 72.773438 890.199219 75.324219 L 890.199219 93.839844 L 873.699219 93.839844 L 873.699219 75.324219 C 873.699219 73.667969 873.566406 72.035156 873.300781 70.421875 Z M 890.199219 102.089844 L 890.199219 126.839844 L 873.699219 126.839844 L 873.699219 102.089844 Z M 890.199219 135.089844 L 890.199219 159.839844 L 873.699219 159.839844 L 873.699219 135.089844 Z M 890.199219 168.089844 L 890.199219 192.839844 L 873.699219 192.839844 L 873.699219 168.089844 Z M 890.199219 201.089844 L 890.199219 225.839844 L 873.699219 225.839844 L 873.699219 201.089844 Z M 890.199219 234.089844 L 890.199219 258.839844 L 873.699219 258.839844 L 873.699219 234.089844 Z M 890.199219 267.089844 L 890.199219 291.839844 L 873.699219 291.839844 L 873.699219 267.089844 Z M 890.199219 300.089844 L 890.199219 324.839844 L 873.699219 324.839844 L 873.699219 300.089844 Z M 890.199219 333.089844 L 890.199219 357.839844 L 873.699219 357.839844 L 873.699219 333.089844 Z M 890.199219 366.089844 L 890.199219 390.839844 L 873.699219 390.839844 L 873.699219 366.089844 Z M 890.199219 399.089844 L 890.199219 423.839844 L 873.699219 423.839844 L 873.699219 399.089844 Z M 890.199219 432.089844 L 890.199219 456.839844 L 873.699219 456.839844 L 873.699219 432.089844 Z M 890.199219 465.089844 L 890.199219 489.839844 L 873.699219 489.839844 L 873.699219 465.089844 Z M 890.199219 498.089844 L 890.199219 522.839844 L 873.699219 522.839844 L 873.699219 498.089844 Z M 890.199219 531.089844 L 890.199219 555.839844 L 873.699219 555.839844 L 873.699219 531.089844 Z M 890.199219 564.089844 L 890.199219 588.839844 L 873.699219 588.839844 L 873.699219 564.089844 Z M 890.199219 597.089844 L 890.199219 610.882812 C 890.199219 615.386719 889.566406 619.78125 888.300781 624.066406 L 872.476562 619.394531 C 873.289062 616.632812 873.699219 613.796875 873.699219 610.882812 L 873.699219 597.089844 Z M 884.4375 633.316406 C 879.410156 642.429688 872.152344 649.105469 862.664062 653.347656 L 855.929688 638.285156 C 862.054688 635.546875 866.742188 631.234375 869.988281 625.347656 Z M 853.105469 656.425781 C 850.011719 657.0625 846.878906 657.378906 843.699219 657.378906 L 826.730469 657.378906 L 826.730469 640.878906 L 843.699219 640.878906 C 845.761719 640.878906 847.785156 640.675781 849.78125 640.265625 Z M 818.480469 657.378906 L 793.730469 657.378906 L 793.730469 640.878906 L 818.480469 640.878906 Z M 785.480469 657.378906 L 760.730469 657.378906 L 760.730469 640.878906 L 785.480469 640.878906 Z M 752.480469 657.378906 L 727.730469 657.378906 L 727.730469 640.878906 L 752.480469 640.878906 Z M 719.480469 657.378906 L 694.730469 657.378906 L 694.730469 640.878906 L 719.480469 640.878906 Z M 686.480469 657.378906 L 666.460938 657.378906 C 664.523438 657.378906 662.597656 657.261719 660.683594 657.023438 L 662.71875 640.648438 C 663.957031 640.800781 665.203125 640.878906 666.460938 640.878906 L 686.480469 640.878906 Z M 650.9375 654.722656 C 641.152344 651.257812 633.386719 645.179688 627.644531 636.488281 L 641.410156 627.390625 C 645.121094 633.007812 650.132812 636.933594 656.445312 639.167969 Z M 623.054688 627.578125 C 620.992188 622.226562 619.964844 616.660156 619.964844 610.882812 L 619.964844 600.144531 L 636.464844 600.144531 L 636.464844 610.882812 C 636.464844 614.617188 637.125 618.207031 638.453125 621.652344 Z M 619.964844 591.894531 L 619.964844 567.144531 L 636.464844 567.144531 L 636.464844 591.894531 Z M 619.964844 558.894531 L 619.964844 534.144531 L 636.464844 534.144531 L 636.464844 558.894531 Z M 619.964844 525.894531 L 619.964844 501.144531 L 636.464844 501.144531 L 636.464844 525.894531 Z M 619.964844 492.894531 L 619.964844 468.144531 L 636.464844 468.144531 L 636.464844 492.894531 Z M 619.964844 459.894531 L 619.964844 435.144531 L 636.464844 435.144531 L 636.464844 459.894531 Z M 619.964844 426.894531 L 619.964844 402.144531 L 636.464844 402.144531 L 636.464844 426.894531 Z M 619.964844 393.894531 L 619.964844 369.144531 L 636.464844 369.144531 L 636.464844 393.894531 Z M 619.964844 360.894531 L 619.964844 336.144531 L 636.464844 336.144531 L 636.464844 360.894531 Z M 619.964844 327.894531 L 619.964844 303.144531 L 636.464844 303.144531 L 636.464844 327.894531 Z M 619.964844 294.894531 L 619.964844 270.144531 L 636.464844 270.144531 L 636.464844 294.894531 Z M 619.964844 261.894531 L 619.964844 237.144531 L 636.464844 237.144531 L 636.464844 261.894531 Z M 619.964844 228.894531 L 619.964844 204.144531 L 636.464844 204.144531 L 636.464844 228.894531 Z M 619.964844 195.894531 L 619.964844 171.144531 L 636.464844 171.144531 L 636.464844 195.894531 Z M 619.964844 162.894531 L 619.964844 138.144531 L 636.464844 138.144531 L 636.464844 162.894531 Z M 619.964844 129.894531 L 619.964844 105.144531 L 636.464844 105.144531 L 636.464844 129.894531 Z M 619.964844 96.894531 L 619.964844 75.324219 C 619.964844 74.015625 620.015625 72.714844 620.125 71.421875 L 636.566406 72.789062 C 636.5 73.628906 636.464844 74.472656 636.464844 75.324219 L 636.464844 96.894531 Z M 622.027344 61.589844 C 625.089844 51.671875 630.847656 43.667969 639.300781 37.578125 L 648.949219 50.964844 C 643.484375 54.898438 639.765625 60.066406 637.792969 66.457031 Z M 648.023438 32.625 C 653.886719 30.089844 660.03125 28.824219 666.460938 28.824219 L 691.210938 28.824219 L 691.210938 45.324219 L 666.460938 45.324219 C 662.308594 45.324219 658.34375 46.140625 654.570312 47.769531 Z M 648.023438 32.625 " fill-opacity="1" fill-rule="nonzero"/></g></g><g clip-path="url(#0d5767f774)"><g clip-path="url(#5621ac4d1a)"><path fill="url(#ca24ea27cf)" d="M 993.636719 581.859375 L 993.636719 59.191406 L 487.5 59.191406 L 487.5 581.859375 Z M 993.636719 581.859375 " fill-rule="nonzero"/></g></g><g clip-path="url(#d2ca736012)"><g clip-path="url(#9677da57ea)"><g transform="matrix(1, 0, 0, 1, 995, 332)"><g clip-path="url(#82a7716baa)"><g clip-path="url(#4408875fca)"><g clip-path="url(#2d291144dd)"><path fill="#fdcce3" d="M 0.0625 0.191406 L 392.480469 0.191406 L 392.480469 275.421875 L 0.0625 275.421875 Z M 0.0625 0.191406 " fill-opacity="1" fill-rule="nonzero"/></g></g></g></g></g></g><g clip-path="url(#b189de3d97)"><g clip-path="url(#36edb9a5e3)"><path fill="#ee72ac" d="M 1066.3125 323.941406 L 1091.0625 323.941406 L 1091.0625 340.441406 L 1066.3125 340.441406 Z M 1099.3125 323.941406 L 1124.0625 323.941406 L 1124.0625 340.441406 L 1099.3125 340.441406 Z M 1132.3125 323.941406 L 1157.0625 323.941406 L 1157.0625 340.441406 L 1132.3125 340.441406 Z M 1165.3125 323.941406 L 1190.0625 323.941406 L 1190.0625 340.441406 L 1165.3125 340.441406 Z M 1198.3125 323.941406 L 1223.0625 323.941406 L 1223.0625 340.441406 L 1198.3125 340.441406 Z M 1231.3125 323.941406 L 1256.0625 323.941406 L 1256.0625 340.441406 L 1231.3125 340.441406 Z M 1264.3125 323.941406 L 1289.0625 323.941406 L 1289.0625 340.441406 L 1264.3125 340.441406 Z M 1297.3125 323.941406 L 1322.0625 323.941406 L 1322.0625 340.441406 L 1297.3125 340.441406 Z M 1330.3125 323.941406 L 1348.816406 323.941406 C 1351.371094 323.941406 1353.902344 324.148438 1356.40625 324.558594 L 1353.730469 340.839844 C 1352.109375 340.574219 1350.472656 340.441406 1348.816406 340.441406 L 1330.3125 340.441406 Z M 1366.058594 327.246094 C 1375.707031 331.101562 1383.226562 337.480469 1388.617188 346.390625 L 1374.503906 354.933594 C 1371.019531 349.175781 1366.164062 345.054688 1359.9375 342.570312 Z M 1392.851562 355.46875 C 1394.492188 360.304688 1395.316406 365.296875 1395.316406 370.441406 L 1395.316406 382.695312 L 1378.816406 382.695312 L 1378.816406 370.441406 C 1378.816406 367.113281 1378.285156 363.894531 1377.226562 360.78125 Z M 1395.316406 390.945312 L 1395.316406 415.695312 L 1378.816406 415.695312 L 1378.816406 390.945312 Z M 1395.316406 423.945312 L 1395.316406 448.695312 L 1378.816406 448.695312 L 1378.816406 423.945312 Z M 1395.316406 456.945312 L 1395.316406 481.695312 L 1378.816406 481.695312 L 1378.816406 456.945312 Z M 1395.316406 489.945312 L 1395.316406 514.695312 L 1378.816406 514.695312 L 1378.816406 489.945312 Z M 1395.316406 522.945312 L 1395.316406 547.695312 L 1378.816406 547.695312 L 1378.816406 522.945312 Z M 1395.316406 555.945312 L 1395.316406 569.171875 C 1395.316406 573.910156 1394.617188 578.523438 1393.21875 583.015625 L 1377.464844 578.109375 C 1378.363281 575.214844 1378.816406 572.238281 1378.816406 569.171875 L 1378.816406 555.945312 Z M 1389.21875 592.203125 C 1384.054688 601.242188 1376.699219 607.8125 1367.148438 611.914062 L 1360.640625 596.753906 C 1366.804688 594.105469 1371.554688 589.863281 1374.890625 584.019531 Z M 1357.558594 614.847656 C 1354.679688 615.398438 1351.765625 615.671875 1348.816406 615.671875 L 1331.285156 615.671875 L 1331.285156 599.171875 L 1348.816406 599.171875 C 1350.726562 599.171875 1352.613281 598.992188 1354.472656 598.640625 Z M 1323.035156 615.671875 L 1298.285156 615.671875 L 1298.285156 599.171875 L 1323.035156 599.171875 Z M 1290.035156 615.671875 L 1265.285156 615.671875 L 1265.285156 599.171875 L 1290.035156 599.171875 Z M 1257.035156 615.671875 L 1232.285156 615.671875 L 1232.285156 599.171875 L 1257.035156 599.171875 Z M 1224.035156 615.671875 L 1199.285156 615.671875 L 1199.285156 599.171875 L 1224.035156 599.171875 Z M 1191.035156 615.671875 L 1166.285156 615.671875 L 1166.285156 599.171875 L 1191.035156 599.171875 Z M 1158.035156 615.671875 L 1133.285156 615.671875 L 1133.285156 599.171875 L 1158.035156 599.171875 Z M 1125.035156 615.671875 L 1100.285156 615.671875 L 1100.285156 599.171875 L 1125.035156 599.171875 Z M 1092.035156 615.671875 L 1067.285156 615.671875 L 1067.285156 599.171875 L 1092.035156 599.171875 Z M 1059.035156 615.671875 L 1034.285156 615.671875 L 1034.285156 599.171875 L 1059.035156 599.171875 Z M 1024.503906 614.835938 C 1014.304688 612.878906 1005.714844 608.019531 998.738281 600.261719 L 1011.003906 589.226562 C 1015.507812 594.238281 1021.046875 597.371094 1027.613281 598.632812 Z M 992.878906 592.144531 C 988.835938 585.042969 986.8125 577.382812 986.8125 569.171875 L 986.8125 564.140625 L 1003.3125 564.140625 L 1003.3125 569.171875 C 1003.3125 574.472656 1004.613281 579.410156 1007.21875 583.984375 Z M 986.8125 555.890625 L 986.8125 531.140625 L 1003.3125 531.140625 L 1003.3125 555.890625 Z M 986.8125 522.890625 L 986.8125 498.140625 L 1003.3125 498.140625 L 1003.3125 522.890625 Z M 986.8125 489.890625 L 986.8125 465.140625 L 1003.3125 465.140625 L 1003.3125 489.890625 Z M 986.8125 456.890625 L 986.8125 432.140625 L 1003.3125 432.140625 L 1003.3125 456.890625 Z M 986.8125 423.890625 L 986.8125 399.140625 L 1003.3125 399.140625 L 1003.3125 423.890625 Z M 986.8125 390.890625 L 986.8125 370.441406 C 986.8125 368.675781 986.910156 366.921875 987.109375 365.179688 L 1003.503906 367.03125 C 1003.375 368.160156 1003.3125 369.296875 1003.3125 370.441406 L 1003.3125 390.890625 Z M 989.300781 355.40625 C 992.652344 345.585938 998.644531 337.753906 1007.273438 331.910156 L 1016.523438 345.574219 C 1010.945312 349.351562 1007.078125 354.40625 1004.914062 360.738281 Z M 1016.128906 327.222656 C 1021.625 325.035156 1027.355469 323.941406 1033.3125 323.941406 L 1058.0625 323.941406 L 1058.0625 340.441406 L 1033.3125 340.441406 C 1029.460938 340.441406 1025.765625 341.144531 1022.230469 342.554688 Z M 1016.128906 327.222656 " fill-opacity="1" fill-rule="nonzero"/></g></g><g clip-path="url(#ace3bf5c22)"><g clip-path="url(#592e43353d)"><g transform="matrix(1, 0, 0, 1, 1057, 198)"><g clip-path="url(#008a411ee2)"><g clip-path="url(#c2c02bb1cb)"><g clip-path="url(#e4d8d41187)"><path fill="#ee72ac" d="M 0.0195312 0.144531 L 268.109375 0.144531 L 268.109375 268.238281 L 0.0195312 268.238281 Z M 0.0195312 0.144531 " fill-opacity="1" fill-rule="nonzero"/></g></g></g></g></g></g><g clip-path="url(#008f673836)"><path fill="#000000" d="M 1191.363281 396.554688 C 1118.535156 396.554688 1079.296875 335.046875 1078.910156 334.429688 C 1078.144531 333.207031 1078.144531 331.652344 1078.910156 330.429688 C 1079.296875 329.808594 1118.535156 268.304688 1191.363281 268.304688 C 1264.195312 268.304688 1303.433594 329.808594 1303.820312 330.429688 C 1304.585938 331.652344 1304.585938 333.207031 1303.820312 334.429688 C 1303.433594 335.046875 1264.195312 396.554688 1191.363281 396.554688 Z M 1086.660156 332.425781 C 1093.925781 342.703125 1130.09375 389.007812 1191.363281 389.007812 C 1252.75 389.007812 1288.824219 342.714844 1296.070312 332.433594 C 1288.804688 322.15625 1252.636719 275.847656 1191.363281 275.847656 C 1129.980469 275.847656 1093.90625 322.144531 1086.660156 332.425781 Z M 1086.660156 332.425781 " fill-opacity="1" fill-rule="nonzero"/></g><g clip-path="url(#c224a34f5a)"><path fill="#000000" d="M 1191.363281 396.554688 C 1156.046875 396.554688 1127.316406 367.789062 1127.316406 332.429688 C 1127.316406 297.070312 1156.046875 268.304688 1191.363281 268.304688 C 1226.683594 268.304688 1255.414062 297.070312 1255.414062 332.429688 C 1255.414062 367.789062 1226.683594 396.554688 1191.363281 396.554688 Z M 1191.363281 275.847656 C 1160.203125 275.847656 1134.851562 301.230469 1134.851562 332.429688 C 1134.851562 363.628906 1160.203125 389.007812 1191.363281 389.007812 C 1222.527344 389.007812 1247.878906 363.628906 1247.878906 332.429688 C 1247.878906 301.230469 1222.527344 275.847656 1191.363281 275.847656 Z M 1191.363281 275.847656 " fill-opacity="1" fill-rule="nonzero"/></g><path fill="#000000" d="M 1191.363281 358.832031 C 1176.824219 358.832031 1164.992188 346.988281 1164.992188 332.429688 C 1164.992188 317.871094 1176.824219 306.023438 1191.363281 306.023438 C 1205.90625 306.023438 1217.738281 317.871094 1217.738281 332.429688 C 1217.738281 346.988281 1205.90625 358.832031 1191.363281 358.832031 Z M 1191.363281 313.570312 C 1180.976562 313.570312 1172.527344 322.03125 1172.527344 332.429688 C 1172.527344 342.828125 1180.976562 351.289062 1191.363281 351.289062 C 1201.75 351.289062 1210.203125 342.828125 1210.203125 332.429688 C 1210.203125 322.03125 1201.75 313.570312 1191.363281 313.570312 Z M 1191.363281 313.570312 " fill-opacity="1" fill-rule="nonzero"/><g clip-path="url(#f3c4a7fa0b)"><g clip-path="url(#e4f09fb40a)"><g transform="matrix(1, 0, 0, 1, 132, 186)"><g clip-path="url(#f06b370148)"><g clip-path="url(#1e5e4a4c9a)"><g clip-path="url(#c8ed694dc1)"><path fill="#27aae1" d="M 0.15625 0.480469 L 291.578125 0.480469 L 291.578125 291.902344 L 0.15625 291.902344 Z M 0.15625 0.480469 " fill-opacity="1" fill-rule="nonzero"/></g></g></g></g></g></g><g clip-path="url(#db584f7465)"><path fill="#1c1c1b" d="M 277.398438 287.984375 C 277.511719 288.082031 277.683594 288.070312 277.78125 287.960938 C 277.8125 287.925781 277.832031 287.882812 277.839844 287.835938 C 281.402344 269.476562 285.234375 252.023438 289.34375 235.480469 C 290.277344 231.730469 291.476562 228.023438 292.949219 224.367188 C 296.191406 216.300781 303.089844 210.945312 312.128906 212.925781 C 322.007812 215.09375 324.105469 225.375 323.347656 234.367188 C 321.949219 251.007812 319.183594 262.757812 314.542969 285.90625 C 313.742188 289.90625 313.230469 292.734375 313.007812 294.398438 C 312.953125 294.769531 313.195312 295.117188 313.558594 295.203125 C 319.765625 296.632812 325.980469 299.417969 330.480469 303.644531 C 337.765625 310.480469 340.277344 319.214844 341.292969 329.042969 C 342.460938 340.375 342.625 350.097656 341.785156 358.210938 C 341.21875 363.660156 339.460938 369.5625 336.511719 375.917969 C 335.03125 379.097656 332.195312 384.847656 328.003906 393.160156 C 325.074219 398.941406 323.957031 407.789062 324.707031 415.03125 C 325.34375 421.191406 326.535156 426.898438 328.277344 432.148438 C 328.636719 433.230469 328.664062 433.988281 328.769531 435.117188 C 328.800781 435.433594 328.773438 435.753906 328.679688 436.058594 C 327.808594 438.925781 326.375 441.167969 324.382812 442.785156 C 320.039062 446.304688 314.691406 448.976562 308.34375 450.796875 C 298.472656 453.621094 288.332031 454.867188 277.921875 454.53125 C 266.101562 454.148438 255.929688 452.582031 245.558594 447.734375 C 243.460938 446.753906 241.558594 445.523438 239.851562 444.050781 C 236.804688 441.40625 236.636719 438.542969 237.09375 434.210938 C 237.621094 429.1875 237.851562 424.3125 237.785156 419.589844 C 237.71875 415.40625 237.296875 411.945312 234.453125 409.136719 C 231.652344 406.371094 229.085938 403.726562 226.75 401.195312 C 221.566406 395.585938 217.582031 389.398438 214.796875 382.636719 C 210.011719 370.988281 208.480469 360 206.398438 345.628906 C 206.34375 345.257812 206.230469 344.898438 206.0625 344.570312 C 205.144531 342.796875 204.507812 341.539062 204.15625 340.796875 C 202.15625 336.59375 201.0625 332.042969 200.882812 327.140625 C 200.515625 317.066406 204.78125 306.648438 215.878906 305.183594 C 215.964844 305.167969 217.660156 304.992188 220.96875 304.652344 C 221.644531 304.589844 222.253906 304.210938 222.617188 303.628906 C 226.984375 296.582031 233.039062 290.511719 241.359375 289.140625 C 241.519531 289.113281 241.628906 288.96875 241.605469 288.808594 C 241.601562 288.796875 241.597656 288.78125 241.59375 288.765625 C 240.746094 286 239.65625 282.300781 238.320312 277.664062 C 234.132812 263.113281 231.128906 251.5625 229.308594 243.007812 C 227.75 235.671875 225.832031 225.765625 229.082031 218.960938 C 232.128906 212.601562 238.070312 209.230469 245.058594 210.429688 C 249.875 211.261719 254.066406 216.050781 256.3125 220.25 C 257.78125 223.011719 259.972656 227.976562 260.96875 231.378906 C 262.136719 235.390625 263.476562 238.683594 264.558594 242.476562 C 267.980469 254.496094 270.480469 263.339844 272.058594 269.011719 C 273.800781 275.277344 276.054688 281.496094 277.238281 287.628906 C 277.273438 287.800781 277.324219 287.921875 277.398438 287.984375 Z M 255.003906 302.457031 C 259.195312 299.039062 266.109375 297.480469 271.492188 296.742188 C 272.082031 296.660156 272.492188 296.117188 272.410156 295.53125 C 272.402344 295.484375 272.394531 295.4375 272.382812 295.394531 C 267.15625 276.0625 261.273438 256.558594 254.738281 236.878906 C 253.054688 231.796875 248.089844 215.746094 240.601562 217.816406 C 235.902344 219.113281 233.371094 225.59375 233.839844 229.949219 C 234.5 235.992188 235.8125 242.816406 237.785156 250.417969 C 241.078125 263.152344 244.769531 275.890625 248.851562 288.640625 C 250.425781 293.546875 252.566406 298.753906 254.222656 302.28125 C 254.34375 302.535156 254.644531 302.644531 254.898438 302.523438 C 254.933594 302.507812 254.96875 302.484375 255.003906 302.457031 Z M 283.304688 294.796875 C 283.210938 295.21875 283.476562 295.636719 283.898438 295.730469 C 283.953125 295.742188 284.007812 295.746094 284.0625 295.746094 C 288.753906 295.800781 294.59375 295.617188 301.574219 295.1875 C 304.1875 295.027344 305.722656 293.6875 306.179688 291.171875 C 307.820312 282.136719 310.71875 269.414062 312.550781 258.367188 C 314.382812 247.347656 315.816406 239.570312 315.734375 229.734375 C 315.714844 227.5 315.28125 225.496094 314.433594 223.71875 C 311.792969 218.1875 304.6875 218.539062 301.691406 223.378906 C 299.410156 227.078125 297.722656 231.15625 296.632812 235.621094 C 291.910156 254.992188 288.46875 271.515625 283.304688 294.796875 Z M 249.359375 310.355469 C 247.28125 305.523438 245.992188 302.46875 245.492188 301.199219 C 244.316406 298.230469 242.726562 296.261719 239.425781 297.289062 C 234.261719 298.878906 228.632812 304.144531 228.605469 310.15625 C 228.59375 312.28125 229.019531 314.699219 229.875 317.402344 C 232.300781 325.03125 235.71875 332.105469 240.128906 338.632812 C 242.085938 341.519531 243.835938 343.742188 245.382812 345.296875 C 249.140625 349.082031 254.597656 348.40625 258.269531 344.929688 C 262.363281 341.046875 259.460938 332.207031 257.203125 327.898438 C 256.96875 327.453125 256.632812 327.070312 256.222656 326.78125 C 254.652344 325.679688 253.238281 324.34375 251.972656 322.773438 C 248.933594 319 248.925781 315.597656 249.472656 311.113281 C 249.5 310.855469 249.460938 310.597656 249.359375 310.355469 Z M 216.179688 358.703125 C 217.191406 365.871094 219.171875 372.914062 222.125 379.820312 C 225.359375 387.394531 230.0625 394.007812 235.503906 399.613281 C 236.277344 400.410156 238.199219 402.25 241.269531 405.136719 C 245.125 408.761719 246.125 413.84375 246.167969 419.03125 C 246.261719 428.402344 246.300781 434.417969 246.285156 437.074219 C 246.273438 440.035156 248.660156 441.363281 251.316406 442.355469 C 256.90625 444.453125 262.914062 445.851562 269.335938 446.546875 C 284.71875 448.21875 303.015625 447.535156 316.273438 438.359375 C 318.449219 436.847656 319.855469 434.703125 319.257812 432.132812 C 318.296875 427.992188 317.5 424.058594 316.867188 420.324219 C 315.730469 413.65625 315.671875 407.046875 316.699219 400.496094 C 317.191406 397.324219 318.292969 394.773438 319.515625 391.496094 C 320.230469 389.566406 321.226562 387.433594 322.5 385.09375 C 324.6875 381.089844 326.867188 376.800781 329.03125 372.226562 C 332.761719 364.347656 333.929688 358.078125 334.019531 349.605469 C 334.089844 342.699219 333.761719 336.214844 333.035156 330.152344 C 332.085938 322.234375 331.269531 316.660156 326.664062 311.054688 C 321.863281 305.214844 315.019531 302.445312 307.496094 302.382812 C 298.15625 302.304688 288.597656 302.46875 278.820312 302.878906 C 276.019531 302.996094 272.726562 303.433594 268.949219 304.1875 C 263.210938 305.339844 255.804688 309.167969 257.613281 316.011719 C 258.308594 318.636719 259.964844 320.53125 262.578125 321.691406 C 268.585938 324.363281 275.023438 325.417969 281.664062 324.863281 C 289.019531 324.253906 296.042969 322.40625 303.769531 320.480469 C 304.226562 320.371094 304.691406 320.644531 304.8125 321.101562 L 308.761719 335.882812 C 308.828125 336.128906 308.683594 336.378906 308.441406 336.445312 C 308.433594 336.449219 308.425781 336.449219 308.417969 336.453125 C 302.253906 337.792969 296.324219 340.089844 291.824219 344.378906 C 290.621094 345.519531 288.847656 347.417969 286.503906 350.0625 C 284.703125 352.105469 282.78125 353.253906 280.628906 351.265625 C 280.105469 350.777344 279.949219 350.011719 280.246094 349.363281 C 284.078125 340.8125 291.125 335.042969 299.898438 331.65625 C 300.25 331.519531 300.441406 331.148438 300.347656 330.785156 L 299.929688 329.234375 C 299.808594 328.777344 299.347656 328.496094 298.882812 328.597656 C 286.300781 331.382812 277.140625 332.863281 266.175781 330.417969 C 265.988281 330.375 265.804688 330.492188 265.757812 330.679688 C 265.746094 330.738281 265.746094 330.800781 265.761719 330.859375 C 268.144531 338.808594 268.476562 346.699219 260.828125 351.898438 C 255.851562 355.277344 250.378906 355.675781 244.417969 353.097656 C 243.953125 352.894531 243.40625 353.078125 243.160156 353.527344 C 240.410156 358.550781 238.246094 361.488281 232.589844 363.011719 C 226.898438 364.550781 220.777344 362.503906 216.460938 358.554688 C 216.390625 358.496094 216.285156 358.5 216.222656 358.570312 C 216.191406 358.609375 216.175781 358.65625 216.179688 358.703125 Z M 220.191406 312.910156 C 215.613281 310.605469 210.847656 314.289062 209.246094 318.574219 C 207.59375 322.984375 207.363281 327.714844 208.554688 332.761719 C 210.710938 341.878906 215.496094 349.125 222.902344 354.492188 C 227.015625 357.464844 232.589844 357.703125 235.613281 353.039062 C 237.394531 350.292969 237.324219 347.371094 235.402344 344.265625 C 230.929688 337.054688 227.433594 330.707031 224.726562 322.980469 C 223.890625 320.578125 222.832031 317.726562 221.558594 314.421875 C 221.300781 313.765625 220.816406 313.226562 220.191406 312.910156 Z M 220.191406 312.910156 " fill-opacity="1" fill-rule="nonzero"/></g><path stroke-linecap="butt" transform="matrix(0.922894, -0.782359, 0.782359, 0.922894, 386.619186, 218.324039)" fill="none" stroke-linejoin="miter" d="M -0.0015332 6.000734 L 102.851512 5.999945 " stroke="#27aae1" stroke-width="12" stroke-opacity="1" stroke-miterlimit="4"/><g fill="#000000" fill-opacity="1"><g transform="translate(195.755476, 158.853879)"><g><path d="M 24.714844 -45.410156 L 24.714844 -53.976562 L 19.105469 -53.976562 C 10.992188 -53.976562 6.59375 -49.582031 6.59375 -41.46875 L 6.59375 -38.890625 L 1.136719 -39.117188 L 1.136719 -31.234375 L 6.59375 -31.460938 L 6.59375 0 L 17.285156 0 L 17.285156 -31.460938 L 24.714844 -31.234375 L 24.714844 -39.117188 L 17.285156 -38.890625 L 17.285156 -40.9375 C 17.285156 -43.96875 18.726562 -45.410156 21.757812 -45.410156 Z M 24.714844 -45.410156 "/></g></g></g><g fill="#000000" fill-opacity="1"><g transform="translate(220.847484, 158.853879)"><g><path d="M 22.441406 1.289062 C 34.191406 1.289062 42.453125 -7.582031 42.453125 -19.40625 C 42.453125 -31.234375 34.191406 -40.105469 22.441406 -40.105469 C 10.6875 -40.105469 2.425781 -31.234375 2.425781 -19.40625 C 2.425781 -7.582031 10.6875 1.289062 22.441406 1.289062 Z M 22.441406 -7.050781 C 16.449219 -7.050781 12.734375 -11.902344 12.734375 -19.40625 C 12.734375 -26.914062 16.449219 -31.765625 22.441406 -31.765625 C 28.429688 -31.765625 32.144531 -26.914062 32.144531 -19.40625 C 32.144531 -11.902344 28.429688 -7.050781 22.441406 -7.050781 Z M 22.441406 -7.050781 "/></g></g></g><g fill="#000000" fill-opacity="1"><g transform="translate(265.725057, 158.853879)"><g><path d="M 24.109375 -40.179688 C 19.785156 -40.179688 16.601562 -37.90625 14.859375 -33.734375 L 15.011719 -39.117188 L 4.546875 -39.117188 L 4.546875 0 L 15.238281 0 L 15.238281 -19.027344 C 15.238281 -26.609375 18.421875 -30.324219 24.941406 -30.324219 C 25.699219 -30.324219 26.382812 -30.25 27.140625 -30.171875 L 27.140625 -39.875 C 26.078125 -40.105469 25.019531 -40.179688 24.109375 -40.179688 Z M 24.109375 -40.179688 "/></g></g></g><g fill="#000000" fill-opacity="1"><g transform="translate(294.379998, 158.853879)"><g><path d="M 48.519531 -40.105469 C 43.210938 -40.105469 39.496094 -37.828125 36.996094 -33.054688 C 35.253906 -37.449219 31.386719 -40.105469 25.777344 -40.105469 C 21.074219 -40.105469 17.589844 -38.132812 15.164062 -34.113281 L 15.011719 -39.117188 L 4.546875 -39.117188 L 4.546875 0 L 15.238281 0 L 15.238281 -20.925781 C 15.238281 -26.761719 18.042969 -30.476562 22.210938 -30.476562 C 25.925781 -30.476562 27.445312 -27.519531 27.445312 -24.03125 L 27.445312 0 L 38.132812 0 L 38.132812 -20.925781 C 38.132812 -26.761719 40.9375 -30.476562 45.109375 -30.476562 C 48.824219 -30.476562 50.339844 -27.519531 50.339844 -24.03125 L 50.339844 0 L 61.027344 0 L 61.027344 -26.15625 C 61.027344 -34.34375 56.632812 -40.105469 48.519531 -40.105469 Z M 48.519531 -40.105469 "/></g></g></g><g fill="#000000" fill-opacity="1"><g transform="translate(1038.822026, 546.215115)"><g><path d="M 48.519531 -40.105469 C 43.210938 -40.105469 39.496094 -37.828125 36.996094 -33.054688 C 35.253906 -37.449219 31.386719 -40.105469 25.777344 -40.105469 C 21.074219 -40.105469 17.589844 -38.132812 15.164062 -34.113281 L 15.011719 -39.117188 L 4.546875 -39.117188 L 4.546875 0 L 15.238281 0 L 15.238281 -20.925781 C 15.238281 -26.761719 18.042969 -30.476562 22.210938 -30.476562 C 25.925781 -30.476562 27.445312 -27.519531 27.445312 -24.03125 L 27.445312 0 L 38.132812 0 L 38.132812 -20.925781 C 38.132812 -26.761719 40.9375 -30.476562 45.109375 -30.476562 C 48.824219 -30.476562 50.339844 -27.519531 50.339844 -24.03125 L 50.339844 0 L 61.027344 0 L 61.027344 -26.15625 C 61.027344 -34.34375 56.632812 -40.105469 48.519531 -40.105469 Z M 48.519531 -40.105469 "/></g></g></g><g fill="#000000" fill-opacity="1"><g transform="translate(1104.394829, 546.215115)"><g><path d="M 41.773438 -18.195312 C 41.773438 -31.917969 33.28125 -40.105469 21.683594 -40.105469 C 9.703125 -40.105469 2.425781 -31.160156 2.425781 -19.710938 C 2.425781 -7.734375 9.855469 1.289062 22.820312 1.289062 C 31.613281 1.289062 38.132812 -2.804688 40.785156 -11.296875 L 30.171875 -12.054688 C 28.882812 -8.640625 26.304688 -6.976562 22.589844 -6.976562 C 17.285156 -6.976562 13.875 -10.460938 13.417969 -16.375 L 41.773438 -16.375 Z M 22.0625 -32.296875 C 26.914062 -32.296875 30.097656 -29.113281 30.703125 -23.652344 L 13.34375 -23.652344 C 13.875 -29.035156 17.210938 -32.296875 22.0625 -32.296875 Z M 22.0625 -32.296875 "/></g></g></g><g fill="#000000" fill-opacity="1"><g transform="translate(1148.590143, 546.215115)"><g><path d="M 39.195312 0 C 38.058594 -1.972656 37.679688 -4.546875 37.679688 -8.1875 L 37.679688 -25.472656 C 37.679688 -35.101562 31.992188 -40.027344 20.773438 -40.027344 C 10.234375 -40.027344 4.851562 -36.011719 4.09375 -27.445312 L 13.875 -27.292969 C 14.402344 -30.929688 16.449219 -32.445312 20.847656 -32.445312 C 25.09375 -32.445312 27.445312 -31.082031 27.445312 -28.203125 L 27.445312 -25.320312 L 13.796875 -22.589844 C 5.914062 -21 1.894531 -16.980469 1.894531 -10.765625 C 1.894531 -3.640625 7.203125 1.136719 15.464844 1.136719 C 20.621094 1.136719 24.867188 -0.757812 27.519531 -3.941406 C 27.746094 -2.578125 28.050781 -1.363281 28.351562 0 Z M 18.496094 -6.746094 C 14.554688 -6.746094 12.355469 -8.640625 12.355469 -11.449219 C 12.355469 -14.023438 14.175781 -15.691406 17.4375 -16.375 L 27.445312 -18.496094 L 27.445312 -15.617188 C 27.445312 -9.855469 23.578125 -6.746094 18.496094 -6.746094 Z M 18.496094 -6.746094 "/></g></g></g><g fill="#000000" fill-opacity="1"><g transform="translate(1190.814484, 546.215115)"><g><path d="M 26.457031 -40.105469 C 21.453125 -40.105469 17.738281 -38.058594 15.164062 -33.8125 L 15.011719 -39.117188 L 4.546875 -39.117188 L 4.546875 0 L 15.238281 0 L 15.238281 -20.925781 C 15.238281 -26.761719 18.347656 -30.476562 22.894531 -30.476562 C 26.6875 -30.476562 28.582031 -27.898438 28.582031 -23.804688 L 28.582031 0 L 39.269531 0 L 39.269531 -26.230469 C 39.269531 -34.722656 34.570312 -40.105469 26.457031 -40.105469 Z M 26.457031 -40.105469 "/></g></g></g><g fill="#000000" fill-opacity="1"><g transform="translate(1234.63075, 546.215115)"><g><path d="M 15.3125 -44.273438 L 15.3125 -53.976562 L 4.625 -53.976562 L 4.625 -44.273438 Z M 15.238281 0 L 15.238281 -39.117188 L 4.546875 -39.117188 L 4.546875 0 Z M 15.238281 0 "/></g></g></g><g fill="#000000" fill-opacity="1"><g transform="translate(1254.416296, 546.215115)"><g><path d="M 26.457031 -40.105469 C 21.453125 -40.105469 17.738281 -38.058594 15.164062 -33.8125 L 15.011719 -39.117188 L 4.546875 -39.117188 L 4.546875 0 L 15.238281 0 L 15.238281 -20.925781 C 15.238281 -26.761719 18.347656 -30.476562 22.894531 -30.476562 C 26.6875 -30.476562 28.582031 -27.898438 28.582031 -23.804688 L 28.582031 0 L 39.269531 0 L 39.269531 -26.230469 C 39.269531 -34.722656 34.570312 -40.105469 26.457031 -40.105469 Z M 26.457031 -40.105469 "/></g></g></g><g fill="#000000" fill-opacity="1"><g transform="translate(1298.232562, 546.215115)"><g><path d="M 30.628906 -34.265625 C 28.050781 -38.132812 24.183594 -40.105469 19.179688 -40.105469 C 9.550781 -40.105469 2.425781 -32.75 2.425781 -20.316406 C 2.425781 -8.1875 9.402344 0 19.179688 0 C 23.578125 0 27.140625 -1.59375 29.792969 -4.777344 L 29.792969 0.605469 C 29.792969 5.535156 27.824219 8.414062 21.605469 8.414062 C 16.980469 8.414062 14.328125 6.824219 13.722656 3.183594 L 3.867188 3.183594 C 4.625 11.371094 10.613281 16.375 21.832031 16.375 C 33.585938 16.375 40.484375 10.765625 40.484375 0.453125 L 40.484375 -39.117188 L 31.007812 -39.117188 Z M 21.53125 -9.097656 C 16.375 -9.097656 12.734375 -13.34375 12.734375 -20.316406 C 12.734375 -27.214844 16.375 -31.539062 21.53125 -31.539062 C 26.6875 -31.539062 30.324219 -27.140625 30.324219 -20.316406 C 30.324219 -13.496094 26.6875 -9.097656 21.53125 -9.097656 Z M 21.53125 -9.097656 "/></g></g></g><path stroke-linecap="butt" transform="matrix(1.078354, 0.548609, -0.548609, 1.078354, 1005.19414, 195.619051)" fill="none" stroke-linejoin="miter" d="M 0.000145081 6.000545 L 65.036989 6.000448 " stroke="#ee72ac" stroke-width="12" stroke-opacity="1" stroke-miterlimit="4"/><g fill="#000000" fill-opacity="1"><g transform="translate(390.968454, 591.263208)"><g><path d="M 20.925781 1.441406 C 31.460938 1.441406 38.285156 -3.335938 38.285156 -11.597656 C 38.285156 -17.664062 34.644531 -21.226562 26.835938 -22.820312 L 18.421875 -24.5625 C 15.617188 -25.167969 14.023438 -26.457031 14.023438 -28.503906 C 14.023438 -31.007812 16.300781 -32.675781 19.863281 -32.675781 C 23.878906 -32.675781 26.761719 -30.628906 27.292969 -27.214844 L 36.921875 -27.59375 C 35.933594 -35.253906 29.492188 -40.105469 20.015625 -40.105469 C 10.386719 -40.105469 4.09375 -35.101562 4.09375 -27.214844 C 4.09375 -21.226562 7.808594 -17.285156 15.464844 -15.769531 L 23.199219 -14.253906 C 26.761719 -13.570312 28.351562 -12.433594 28.351562 -10.308594 C 28.351562 -7.355469 25.320312 -5.988281 21.304688 -5.988281 C 16.222656 -5.988281 13.570312 -8.1875 12.964844 -12.054688 L 3.183594 -11.675781 C 4.167969 -3.335938 10.234375 1.441406 20.925781 1.441406 Z M 20.925781 1.441406 "/></g></g></g><g fill="#000000" fill-opacity="1"><g transform="translate(431.904081, 591.263208)"><g><path d="M 15.3125 -44.273438 L 15.3125 -53.976562 L 4.625 -53.976562 L 4.625 -44.273438 Z M 15.238281 0 L 15.238281 -39.117188 L 4.546875 -39.117188 L 4.546875 0 Z M 15.238281 0 "/></g></g></g><g fill="#000000" fill-opacity="1"><g transform="translate(451.689627, 591.263208)"><g><path d="M 30.628906 -34.265625 C 28.050781 -38.132812 24.183594 -40.105469 19.179688 -40.105469 C 9.550781 -40.105469 2.425781 -32.75 2.425781 -20.316406 C 2.425781 -8.1875 9.402344 0 19.179688 0 C 23.578125 0 27.140625 -1.59375 29.792969 -4.777344 L 29.792969 0.605469 C 29.792969 5.535156 27.824219 8.414062 21.605469 8.414062 C 16.980469 8.414062 14.328125 6.824219 13.722656 3.183594 L 3.867188 3.183594 C 4.625 11.371094 10.613281 16.375 21.832031 16.375 C 33.585938 16.375 40.484375 10.765625 40.484375 0.453125 L 40.484375 -39.117188 L 31.007812 -39.117188 Z M 21.53125 -9.097656 C 16.375 -9.097656 12.734375 -13.34375 12.734375 -20.316406 C 12.734375 -27.214844 16.375 -31.539062 21.53125 -31.539062 C 26.6875 -31.539062 30.324219 -27.140625 30.324219 -20.316406 C 30.324219 -13.496094 26.6875 -9.097656 21.53125 -9.097656 Z M 21.53125 -9.097656 "/></g></g></g><g fill="#000000" fill-opacity="1"><g transform="translate(496.718804, 591.263208)"><g><path d="M 26.457031 -40.105469 C 21.453125 -40.105469 17.738281 -38.058594 15.164062 -33.8125 L 15.011719 -39.117188 L 4.546875 -39.117188 L 4.546875 0 L 15.238281 0 L 15.238281 -20.925781 C 15.238281 -26.761719 18.347656 -30.476562 22.894531 -30.476562 C 26.6875 -30.476562 28.582031 -27.898438 28.582031 -23.804688 L 28.582031 0 L 39.269531 0 L 39.269531 -26.230469 C 39.269531 -34.722656 34.570312 -40.105469 26.457031 -40.105469 Z M 26.457031 -40.105469 "/></g></g></g><g fill="#000000" fill-opacity="1"><g transform="translate(540.53507, 591.263208)"><g><path d="M 20.925781 1.441406 C 31.460938 1.441406 38.285156 -3.335938 38.285156 -11.597656 C 38.285156 -17.664062 34.644531 -21.226562 26.835938 -22.820312 L 18.421875 -24.5625 C 15.617188 -25.167969 14.023438 -26.457031 14.023438 -28.503906 C 14.023438 -31.007812 16.300781 -32.675781 19.863281 -32.675781 C 23.878906 -32.675781 26.761719 -30.628906 27.292969 -27.214844 L 36.921875 -27.59375 C 35.933594 -35.253906 29.492188 -40.105469 20.015625 -40.105469 C 10.386719 -40.105469 4.09375 -35.101562 4.09375 -27.214844 C 4.09375 -21.226562 7.808594 -17.285156 15.464844 -15.769531 L 23.199219 -14.253906 C 26.761719 -13.570312 28.351562 -12.433594 28.351562 -10.308594 C 28.351562 -7.355469 25.320312 -5.988281 21.304688 -5.988281 C 16.222656 -5.988281 13.570312 -8.1875 12.964844 -12.054688 L 3.183594 -11.675781 C 4.167969 -3.335938 10.234375 1.441406 20.925781 1.441406 Z M 20.925781 1.441406 "/></g></g></g></g></g></svg>