<?xml version="1.0" encoding="UTF-8" standalone="no"?>
<!DOCTYPE svg PUBLIC "-//W3C//DTD SVG 20010904//EN"
              "http://www.w3.org/TR/2001/REC-SVG-20010904/DTD/svg10.dtd">

<svg xmlns="http://www.w3.org/2000/svg"
     width="6.57778in" height="1.6in"
     viewBox="0 0 592 144">
  <path id="Selection #1"
        fill="none" stroke="black" stroke-width="1"
        d="M 0.00,0.00
           C 0.00,0.00 0.00,144.00 0.00,144.00
             0.00,144.00 592.00,144.00 592.00,144.00
             592.00,144.00 592.00,0.00 592.00,0.00
             592.00,0.00 0.00,0.00 0.00,0.00 Z
           M 29.00,22.00
           C 29.00,22.00 29.00,118.00 29.00,118.00
             29.00,118.00 12.00,118.00 12.00,118.00
             12.00,118.00 12.00,22.00 12.00,22.00
             12.00,22.00 29.00,22.00 29.00,22.00 Z
           M 252.00,22.00
           C 252.00,22.00 252.00,70.00 252.00,70.00
             252.00,70.00 267.00,55.00 267.00,55.00
             267.00,55.00 276.00,47.60 276.00,47.60
             276.00,47.60 298.00,47.00 298.00,47.00
             298.00,47.00 279.00,67.00 279.00,67.00
             279.00,67.00 271.64,75.58 271.64,75.58
             271.64,75.58 278.00,87.00 278.00,87.00
             278.00,87.00 297.00,118.00 297.00,118.00
             293.38,118.00 279.57,118.39 277.09,117.40
             273.79,116.08 271.76,111.92 270.00,109.00
             266.43,103.08 259.96,94.16 258.00,88.00
             258.00,88.00 253.02,93.02 253.02,93.02
             253.02,93.02 252.00,118.00 252.00,118.00
             252.00,118.00 235.00,118.00 235.00,118.00
             235.00,118.00 235.00,22.00 235.00,22.00
             235.00,22.00 252.00,22.00 252.00,22.00 Z
           M 107.00,89.00
           C 107.00,89.00 59.00,89.00 59.00,89.00
             60.55,94.02 60.68,97.64 65.18,101.20
             74.57,108.62 86.65,103.53 89.00,92.00
             89.00,92.00 107.00,92.00 107.00,92.00
             105.08,101.51 101.54,110.55 93.00,116.03
             88.25,119.08 83.53,119.93 78.00,120.00
             73.97,120.04 67.74,120.28 64.00,119.21
             49.93,115.21 42.17,102.07 42.00,88.00
             41.87,76.86 42.23,66.26 49.53,57.01
             61.33,42.07 86.53,40.66 98.61,56.00
             105.87,65.21 107.00,77.74 107.00,89.00 Z
           M 182.00,89.00
           C 182.00,89.00 134.00,89.00 134.00,89.00
             135.55,94.02 135.68,97.64 140.18,101.20
             149.57,108.62 161.65,103.53 164.00,92.00
             164.00,92.00 182.00,92.00 182.00,92.00
             180.08,101.51 176.54,110.55 168.00,116.03
             163.25,119.08 158.53,119.93 153.00,120.00
             148.97,120.04 142.74,120.28 139.00,119.21
             124.93,115.21 117.17,102.07 117.00,88.00
             116.87,76.86 117.23,66.26 124.53,57.01
             136.33,42.07 161.53,40.66 173.61,56.00
             180.87,65.21 182.00,77.74 182.00,89.00 Z
           M 363.00,89.00
           C 363.00,89.00 315.00,89.00 315.00,89.00
             316.55,94.02 316.68,97.64 321.18,101.20
             330.57,108.62 342.65,103.53 345.00,92.00
             345.00,92.00 363.00,92.00 363.00,92.00
             361.08,101.51 357.54,110.55 349.00,116.03
             344.25,119.08 339.53,119.93 334.00,120.00
             329.97,120.04 323.74,120.28 320.00,119.21
             305.93,115.21 298.17,102.07 298.00,88.00
             297.87,76.86 298.23,66.26 305.53,57.01
             317.33,42.07 342.53,40.66 354.61,56.00
             361.87,65.21 363.00,77.74 363.00,89.00 Z
           M 501.00,105.00
           C 501.00,105.00 508.00,104.00 508.00,104.00
             508.00,104.00 508.00,118.00 508.00,118.00
             503.56,118.79 497.43,119.61 493.00,118.61
             493.00,118.61 486.00,115.80 486.00,115.80
             482.73,115.04 478.45,117.93 475.00,118.96
             470.65,120.25 466.49,120.05 462.00,120.00
             450.15,119.85 440.58,112.31 440.04,100.00
             439.80,94.52 440.99,88.43 444.42,84.02
             450.40,76.30 459.98,75.24 469.00,74.15
             472.43,73.74 480.21,73.52 482.36,70.69
             484.99,67.22 481.90,60.42 471.00,61.04
             466.89,61.28 464.12,62.55 461.73,66.04
             460.16,68.35 460.06,70.74 458.42,71.98
             456.30,73.57 446.08,73.00 443.00,73.00
             443.34,65.70 444.74,58.47 450.10,53.10
             460.26,42.93 485.78,42.41 495.79,53.10
             500.11,57.73 500.93,63.92 501.00,70.00
             501.00,70.00 501.00,105.00 501.00,105.00 Z
           M 558.00,46.00
           C 558.00,46.00 558.00,63.00 558.00,63.00
             552.42,63.00 547.71,62.68 543.04,66.42
             537.85,70.57 537.08,75.77 537.00,82.00
             537.00,82.00 537.00,118.00 537.00,118.00
             537.00,118.00 520.00,118.00 520.00,118.00
             520.00,118.00 520.00,47.00 520.00,47.00
             520.00,47.00 537.00,47.00 537.00,47.00
             537.00,47.00 536.00,53.00 536.00,53.00
             543.39,46.02 547.94,44.23 558.00,46.00 Z
           M 431.00,47.00
           C 431.00,47.00 430.41,61.00 430.41,61.00
             430.41,61.00 419.75,75.00 419.75,75.00
             419.75,75.00 396.00,103.00 396.00,103.00
             396.00,103.00 432.00,103.00 432.00,103.00
             432.00,103.00 432.00,118.00 432.00,118.00
             432.00,118.00 371.00,118.00 371.00,118.00
             371.00,118.00 371.58,106.00 371.58,106.00
             371.58,106.00 382.08,92.00 382.08,92.00
             382.08,92.00 406.00,63.00 406.00,63.00
             406.00,63.00 374.00,63.00 374.00,63.00
             374.00,63.00 374.00,47.00 374.00,47.00
             374.00,47.00 431.00,47.00 431.00,47.00 Z
           M 60.00,75.00
           C 60.00,75.00 89.00,75.00 89.00,75.00
             87.92,56.44 61.99,57.39 60.00,75.00 Z
           M 135.00,75.00
           C 135.00,75.00 164.00,75.00 164.00,75.00
             162.92,56.44 136.99,57.39 135.00,75.00 Z
           M 316.00,75.00
           C 316.00,75.00 345.00,75.00 345.00,75.00
             343.92,56.44 317.99,57.39 316.00,75.00 Z
           M 484.00,87.00
           C 484.00,87.00 472.00,89.00 472.00,89.00
             469.80,89.31 466.03,89.85 464.00,90.53
             456.42,93.08 457.11,100.62 460.31,103.26
             464.49,106.71 477.36,105.31 481.70,97.91
             483.49,94.84 483.84,90.48 484.00,87.00 Z
           M 582.00,99.00
           C 582.00,99.00 582.00,118.00 582.00,118.00
             582.00,118.00 562.00,118.00 562.00,118.00
             562.00,118.00 562.00,99.00 562.00,99.00
             562.00,99.00 582.00,99.00 582.00,99.00 Z" />
</svg>
